<?xml version="1.0" encoding="UTF-8" standalone="no"?>
<!-- Created with Inkscape (http://www.inkscape.org/) -->

<svg
   xmlns:dc="http://purl.org/dc/elements/1.1/"
   xmlns:cc="http://creativecommons.org/ns#"
   xmlns:rdf="http://www.w3.org/1999/02/22-rdf-syntax-ns#"
   xmlns:svg="http://www.w3.org/2000/svg"
   xmlns="http://www.w3.org/2000/svg"
   xmlns:xlink="http://www.w3.org/1999/xlink"
   version="1.2"
   width="640"
   height="480"
   id="svg3044">
  <metadata
     id="metadata3050">
    <rdf:RDF>
      <cc:Work
         rdf:about="">
        <dc:format>image/svg+xml</dc:format>
        <dc:type
           rdf:resource="http://purl.org/dc/dcmitype/StillImage" />
        <dc:title></dc:title>
      </cc:Work>
    </rdf:RDF>
  </metadata>
  <defs
     id="defs3048">
    <radialGradient
       cx="943.93427"
       cy="580.80634"
       r="960"
       fx="943.93427"
       fy="580.80634"
       id="radialGradient3765"
       xlink:href="#linearGradient3755"
       gradientUnits="userSpaceOnUse"
       gradientTransform="matrix(1.2448906,0,0,0.8766271,-235.09492,-56.788391)" />
    <linearGradient
       id="linearGradient3755">
      <stop
         id="stop3757"
         style="stop-color:#8f9db3;stop-opacity:1"
         offset="0" />
      <stop
         id="stop3759"
         style="stop-color:#161b2b;stop-opacity:1"
         offset="1" />
    </linearGradient>
    <radialGradient
       cx="943.93427"
       cy="580.80634"
       r="960"
       fx="943.93427"
       fy="580.80634"
       id="radialGradient3088-8"
       xlink:href="#linearGradient3755-8"
       gradientUnits="userSpaceOnUse"
       gradientTransform="matrix(0.41496355,0,0,0.35065085,-78.364969,36.339742)" />
    <linearGradient
       id="linearGradient3755-8">
      <stop
         id="stop3757-2"
         style="stop-color:#8f9db3;stop-opacity:1"
         offset="0" />
      <stop
         id="stop3759-7"
         style="stop-color:#161b2b;stop-opacity:1"
         offset="1" />
    </linearGradient>
    <radialGradient
       cx="943.93427"
       cy="580.80634"
       r="960"
       fx="943.93427"
       fy="580.80634"
       id="radialGradient5367"
       xlink:href="#linearGradient3755-8"
       gradientUnits="userSpaceOnUse"
       gradientTransform="matrix(0.41496355,0,0,0.35065085,-78.364969,36.339742)" />
    <radialGradient
       cx="943.93427"
       cy="580.80634"
       r="960"
       fx="943.93427"
       fy="580.80634"
       id="radialGradient3524"
       xlink:href="#linearGradient3755-8"
       gradientUnits="userSpaceOnUse"
       gradientTransform="matrix(0.41496355,0,0,0.35065085,-78.364969,36.339742)" />
    <radialGradient
       cx="739.77643"
       cy="47.037601"
       r="855.789"
       fx="650.55377"
       fy="51.862801"
       id="background_1_"
       gradientUnits="userSpaceOnUse"
       gradientTransform="matrix(0.7783,0,0,1.0096,3.9834,5.9004)">
      <stop
         id="stop3540"
         style="stop-color:#073246;stop-opacity:1"
         offset="0" />
      <stop
         id="stop3542"
         style="stop-color:#144352;stop-opacity:1"
         offset="0.1012" />
      <stop
         id="stop3544"
         style="stop-color:#357177;stop-opacity:1"
         offset="0.32069999" />
      <stop
         id="stop3546"
         style="stop-color:#489291;stop-opacity:1"
         offset="0.4409" />
      <stop
         id="stop3548"
         style="stop-color:#37757b;stop-opacity:1"
         offset="0.57069999" />
      <stop
         id="stop3550"
         style="stop-color:#164353;stop-opacity:1"
         offset="0.8567" />
      <stop
         id="stop3552"
         style="stop-color:#063246;stop-opacity:1"
         offset="0.98909998" />
    </radialGradient>
    <radialGradient
       cx="739.77643"
       cy="47.037601"
       r="855.789"
       fx="650.55377"
       fy="51.862801"
       id="radialGradient3685"
       xlink:href="#background_1_"
       gradientUnits="userSpaceOnUse"
       gradientTransform="matrix(0.77306734,0,0,1.0019435,3.9566183,5.8556496)" />
    <radialGradient
       cx="552.4375"
       cy="377.9375"
       r="3.3803999"
       id="SVGID_1_"
       gradientUnits="userSpaceOnUse"
       gradientTransform="matrix(1.0725,0,0,0.9931,-22.7588,-0.2271)">
      <stop
         id="stop3557"
         style="stop-color:#fff1e9;stop-opacity:1"
         offset="0" />
      <stop
         id="stop3559"
         style="stop-color:#ffffff;stop-opacity:0.2"
         offset="1" />
    </radialGradient>
    <radialGradient
       cx="567.14551"
       cy="367.72949"
       r="3.8273001"
       id="SVGID_2_"
       gradientUnits="userSpaceOnUse"
       gradientTransform="matrix(1.0725,0,0,0.9931,-22.7588,-0.2271)">
      <stop
         id="stop3564"
         style="stop-color:#fff1e9;stop-opacity:1"
         offset="0" />
      <stop
         id="stop3566"
         style="stop-color:#ffffff;stop-opacity:0.2"
         offset="1" />
    </radialGradient>
    <radialGradient
       cx="571.80371"
       cy="352.84381"
       r="1.8586"
       id="SVGID_3_"
       gradientUnits="userSpaceOnUse"
       gradientTransform="matrix(1.0725,0,0,0.9931,-22.7588,-0.2271)">
      <stop
         id="stop3571"
         style="stop-color:#fff1e9;stop-opacity:1"
         offset="0" />
      <stop
         id="stop3573"
         style="stop-color:#ffffff;stop-opacity:0.2"
         offset="1" />
    </radialGradient>
    <radialGradient
       cx="539.26947"
       cy="270.10641"
       r="1.6877"
       id="SVGID_4_"
       gradientUnits="userSpaceOnUse"
       gradientTransform="matrix(1.0725,0,0,0.9931,-22.7588,-0.2271)">
      <stop
         id="stop3578"
         style="stop-color:#fff1e9;stop-opacity:1"
         offset="0" />
      <stop
         id="stop3580"
         style="stop-color:#ffffff;stop-opacity:0.2"
         offset="1" />
    </radialGradient>
    <radialGradient
       cx="539.74799"
       cy="270.7529"
       r="0.4364"
       id="SVGID_5_"
       gradientUnits="userSpaceOnUse"
       gradientTransform="matrix(1.0725,0,0,0.9931,-22.7588,-0.2271)">
      <stop
         id="stop3585"
         style="stop-color:#fff1e9;stop-opacity:1"
         offset="0" />
      <stop
         id="stop3587"
         style="stop-color:#ffffff;stop-opacity:0.2"
         offset="1" />
    </radialGradient>
    <radialGradient
       cx="534.47559"
       cy="371.7637"
       r="91.161301"
       id="SVGID_6_"
       gradientUnits="userSpaceOnUse"
       gradientTransform="matrix(1.0725,0,0,0.9931,-22.7588,-0.2271)">
      <stop
         id="stop3592"
         style="stop-color:#fff1e9;stop-opacity:1"
         offset="0" />
      <stop
         id="stop3594"
         style="stop-color:#ffffff;stop-opacity:0.2"
         offset="1" />
    </radialGradient>
    <radialGradient
       cx="516.91992"
       cy="387.2793"
       r="4.5840001"
       id="SVGID_7_"
       gradientUnits="userSpaceOnUse"
       gradientTransform="matrix(1.0725,0,0,0.9931,-22.7588,-0.2271)">
      <stop
         id="stop3599"
         style="stop-color:#fff1e9;stop-opacity:1"
         offset="0" />
      <stop
         id="stop3601"
         style="stop-color:#ffffff;stop-opacity:0.2"
         offset="1" />
    </radialGradient>
    <radialGradient
       cx="518.35162"
       cy="380.75201"
       r="2.9717"
       id="SVGID_8_"
       gradientUnits="userSpaceOnUse"
       gradientTransform="matrix(1.0725,0,0,0.9931,-22.7588,-0.2271)">
      <stop
         id="stop3606"
         style="stop-color:#fff1e9;stop-opacity:1"
         offset="0" />
      <stop
         id="stop3608"
         style="stop-color:#ffffff;stop-opacity:0.2"
         offset="1" />
    </radialGradient>
    <radialGradient
       cx="604.08398"
       cy="371.05859"
       r="7.5440001"
       id="SVGID_9_"
       gradientUnits="userSpaceOnUse"
       gradientTransform="matrix(1.0725,0,0,0.9931,-22.7588,-0.2271)">
      <stop
         id="stop3613"
         style="stop-color:#fff1e9;stop-opacity:1"
         offset="0" />
      <stop
         id="stop3615"
         style="stop-color:#ffffff;stop-opacity:0.2"
         offset="1" />
    </radialGradient>
    <radialGradient
       cx="540.73053"
       cy="267.4238"
       r="3.1712"
       id="SVGID_10_"
       gradientUnits="userSpaceOnUse"
       gradientTransform="matrix(1.0725,0,0,0.9931,-22.7588,-0.2271)">
      <stop
         id="stop3620"
         style="stop-color:#fff1e9;stop-opacity:1"
         offset="0" />
      <stop
         id="stop3622"
         style="stop-color:#ffffff;stop-opacity:0.2"
         offset="1" />
    </radialGradient>
    <radialGradient
       cx="461.86719"
       cy="314.1152"
       r="2.1212001"
       id="SVGID_11_"
       gradientUnits="userSpaceOnUse"
       gradientTransform="matrix(1.0725,0,0,0.9931,-22.7588,-0.2271)">
      <stop
         id="stop3627"
         style="stop-color:#fff1e9;stop-opacity:1"
         offset="0" />
      <stop
         id="stop3629"
         style="stop-color:#ffffff;stop-opacity:0.2"
         offset="1" />
    </radialGradient>
    <radialGradient
       cx="457.18951"
       cy="330.90631"
       r="2.6271"
       id="SVGID_12_"
       gradientUnits="userSpaceOnUse"
       gradientTransform="matrix(1.0725,0,0,0.9931,-22.7588,-0.2271)">
      <stop
         id="stop3634"
         style="stop-color:#fff1e9;stop-opacity:1"
         offset="0" />
      <stop
         id="stop3636"
         style="stop-color:#ffffff;stop-opacity:0.2"
         offset="1" />
    </radialGradient>
    <radialGradient
       cx="457.18951"
       cy="330.90631"
       r="2.6271"
       id="radialGradient4653"
       xlink:href="#SVGID_12_"
       gradientUnits="userSpaceOnUse"
       gradientTransform="matrix(1.0725,0,0,0.9931,-22.7588,-0.2271)" />
  </defs>
  <g
     transform="translate(-15.762712,0)"
     id="layer1" />
  <flowRoot
     transform="translate(-15.762712,0)"
     id="flowRoot5221"
     xml:space="preserve"
     style="font-size:40px;font-style:normal;font-variant:normal;font-weight:normal;font-stretch:normal;line-height:125%;letter-spacing:0px;word-spacing:0px;fill:#000000;fill-opacity:1;stroke:none"><flowRegion
       id="flowRegion5223"><rect
         width="168.81355"
         height="96.610168"
         x="231.86441"
         y="-151.52542"
         id="rect5225" /></flowRegion><flowPara
       id="flowPara5227" /></flowRoot>  <rect
     width="640"
     height="480"
     x="0"
     y="1.7763568e-14"
     id="background"
     style="fill:url(#radialGradient3685);fill-rule:evenodd" />
  <g
     transform="matrix(1.3344192,0,0,1.3344192,-612.67989,-336.76568)"
     id="swirl">
    <radialGradient
       cx="552.4375"
       cy="377.9375"
       r="3.3803999"
       id="radialGradient4569"
       gradientUnits="userSpaceOnUse"
       gradientTransform="matrix(1.0725,0,0,0.9931,-22.7588,-0.2271)">
      <stop
         id="stop4571"
         style="stop-color:#fff1e9;stop-opacity:1"
         offset="0" />
      <stop
         id="stop4573"
         style="stop-color:#ffffff;stop-opacity:0.2"
         offset="1" />
    </radialGradient>
    <path
       d="m 566.125,374.093 c -3.433,0.049 0.649,1.765 5.129,2.455 1.239,-0.966 2.363,-1.94 3.36,-2.891 -2.79,0.681 -5.628,0.697 -8.489,0.436"
       id="path3561"
       style="fill:url(#SVGID_1_)" />
    <radialGradient
       cx="567.14551"
       cy="367.72949"
       r="3.8273001"
       id="radialGradient4576"
       gradientUnits="userSpaceOnUse"
       gradientTransform="matrix(1.0725,0,0,0.9931,-22.7588,-0.2271)">
      <stop
         id="stop4578"
         style="stop-color:#fff1e9;stop-opacity:1"
         offset="0" />
      <stop
         id="stop4580"
         style="stop-color:#ffffff;stop-opacity:0.2"
         offset="1" />
    </radialGradient>
    <path
       d="m 584.549,369.508 c 2.043,-2.814 3.534,-5.898 4.059,-9.086 -0.459,2.271 -1.694,4.234 -2.855,6.303 -6.416,4.034 -0.606,-2.393 -0.005,-4.837 -6.899,8.669 -0.951,5.199 -1.199,7.62"
       id="path3568"
       style="fill:url(#SVGID_2_)" />
    <radialGradient
       cx="571.80371"
       cy="352.84381"
       r="1.8586"
       id="radialGradient4583"
       gradientUnits="userSpaceOnUse"
       gradientTransform="matrix(1.0725,0,0,0.9931,-22.7588,-0.2271)">
      <stop
         id="stop4585"
         style="stop-color:#fff1e9;stop-opacity:1"
         offset="0" />
      <stop
         id="stop4587"
         style="stop-color:#ffffff;stop-opacity:0.2"
         offset="1" />
    </radialGradient>
    <path
       d="m 591.352,351.844 c 0.413,-6.171 -1.219,-4.22 -1.769,-1.863 0.64,0.33 1.149,4.347 1.769,1.863"
       id="path3575"
       style="fill:url(#SVGID_3_)" />
    <radialGradient
       cx="539.26947"
       cy="270.10641"
       r="1.6877"
       id="radialGradient4590"
       gradientUnits="userSpaceOnUse"
       gradientTransform="matrix(1.0725,0,0,0.9931,-22.7588,-0.2271)">
      <stop
         id="stop4592"
         style="stop-color:#fff1e9;stop-opacity:1"
         offset="0" />
      <stop
         id="stop4594"
         style="stop-color:#ffffff;stop-opacity:0.2"
         offset="1" />
    </radialGradient>
    <path
       d="m 553.106,267.506 c 1.833,0.329 3.96,0.58 3.66,1.019 2.005,-0.442 2.46,-0.842 -3.66,-1.019"
       id="path3582"
       style="fill:url(#SVGID_4_)" />
    <radialGradient
       cx="539.74799"
       cy="270.7529"
       r="0.4364"
       id="radialGradient4597"
       gradientUnits="userSpaceOnUse"
       gradientTransform="matrix(1.0725,0,0,0.9931,-22.7588,-0.2271)">
      <stop
         id="stop4599"
         style="stop-color:#fff1e9;stop-opacity:1"
         offset="0" />
      <stop
         id="stop4601"
         style="stop-color:#ffffff;stop-opacity:0.2"
         offset="1" />
    </radialGradient>
    <path
       d="m 556.767,268.524 -1.293,0.266 1.203,-0.105 0.09,-0.161"
       id="path3589"
       style="fill:url(#SVGID_5_)" />
    <radialGradient
       cx="534.47559"
       cy="371.7637"
       r="91.161301"
       id="radialGradient4604"
       gradientUnits="userSpaceOnUse"
       gradientTransform="matrix(1.0725,0,0,0.9931,-22.7588,-0.2271)">
      <stop
         id="stop4606"
         style="stop-color:#fff1e9;stop-opacity:1"
         offset="0" />
      <stop
         id="stop4608"
         style="stop-color:#ffffff;stop-opacity:0.2"
         offset="1" />
    </radialGradient>
    <path
       d="m 613.893,354.184 c 0.204,5.541 -1.623,8.23 -3.272,12.989 l -2.969,1.479 c -2.427,4.707 0.236,2.987 -1.501,6.729 -3.791,3.366 -11.503,10.528 -13.972,11.179 -1.8,-0.036 1.223,-2.122 1.616,-2.938 -5.072,3.479 -4.067,5.223 -11.828,7.336 l -0.228,-0.503 c -19.139,8.985 -45.722,-8.824 -45.371,-33.125 -0.207,1.544 -0.579,1.159 -1.007,1.782 -0.986,-12.503 5.787,-25.061 17.206,-30.188 11.173,-5.521 24.269,-3.255 32.272,4.188 -4.396,-5.748 -13.144,-11.838 -23.516,-11.27 -10.157,0.162 -19.656,6.603 -22.827,13.598 -5.206,3.272 -5.808,12.607 -8.076,14.314 -3.051,22.381 5.736,32.048 20.603,43.422 2.341,1.576 0.665,1.813 0.98,3.011 -4.941,-2.307 -9.463,-5.794 -13.182,-10.059 1.973,2.882 4.102,5.685 6.855,7.89 -4.66,-1.575 -10.881,-11.27 -12.698,-11.663 8.029,14.351 32.573,25.166 45.426,19.799 -5.944,0.222 -13.502,0.122 -20.185,-2.34 -2.804,-1.443 -6.622,-4.43 -5.937,-4.988 17.539,6.54 35.657,4.952 50.836,-7.189 3.859,-3.002 8.078,-8.106 9.294,-8.177 -1.833,2.751 0.316,1.321 -1.095,3.755 3.85,-6.192 -1.672,-2.52 3.975,-10.694 l 2.088,2.866 c -0.775,-5.138 6.397,-11.384 5.67,-19.514 1.644,-2.487 1.834,2.676 0.089,8.396 2.422,-6.345 0.639,-7.364 1.259,-12.6 0.674,1.757 1.557,3.628 2.009,5.483 -1.578,-6.129 1.62,-10.325 2.41,-13.889 -0.776,-0.345 -2.435,2.71 -2.813,-4.533 0.058,-3.146 0.878,-1.648 1.196,-2.423 -0.62,-0.356 -2.243,-2.767 -3.232,-7.394 0.717,-1.084 1.912,2.817 2.89,2.979 -0.626,-3.678 -1.707,-6.481 -1.75,-9.303 -2.846,-5.939 -1.005,0.788 -3.318,-2.551 -3.027,-9.435 2.517,-2.191 2.89,-6.476 4.594,6.643 7.211,16.936 8.412,21.196 -0.917,-5.196 -2.398,-10.231 -4.209,-15.105 1.396,0.586 -2.244,-10.691 1.813,-3.224 -4.335,-15.927 -18.555,-30.806 -31.643,-37.785 1.603,1.458 3.622,7.11 2.897,7.397 -6.508,-3.867 -5.363,-7.981 -6.294,-9.615 -5.304,-2.151 -5.648,0.172 -9.159,0.005 -9.992,-5.29 -11.918,-4.728 -21.112,-8.043 l 0.42,1.952 c -6.622,-2.201 -7.713,0.834 -14.867,0.006 -0.436,-0.338 2.292,-1.226 4.538,-1.554 -6.397,0.844 -6.101,-1.258 -12.361,0.23 1.543,-1.081 3.174,-1.795 4.821,-2.714 -5.219,0.315 -12.46,3.033 -10.223,0.564 -8.516,3.79 -23.633,9.112 -32.116,17.053 l -0.266,-1.779 c -3.889,4.657 -16.953,13.911 -17.992,19.945 l -1.041,0.24 c -2.021,3.42 -3.332,7.296 -4.936,10.809 -2.646,4.503 -3.879,1.736 -3.502,2.439 -5.2,10.531 -7.788,19.382 -10.021,26.636 1.591,2.377 0.038,14.294 0.638,23.832 -2.613,47.106 33.121,92.84 72.184,103.402 5.724,2.044 14.237,1.967 21.479,2.175 -8.543,-2.438 -9.65,-1.291 -17.972,-4.19 -6.003,-2.817 -7.321,-6.043 -11.572,-9.725 l 1.686,2.967 c -8.343,-2.948 -4.853,-3.647 -11.639,-5.792 l 1.797,-2.343 c -2.702,-0.204 -7.159,-4.548 -8.376,-6.951 l -2.957,0.117 c -3.557,-4.38 -5.447,-7.53 -5.311,-9.973 l -0.953,1.697 c -1.083,-1.854 -13.076,-16.415 -6.854,-13.023 -1.154,-1.057 -2.692,-1.717 -4.356,-4.739 l 1.268,-1.443 c -2.994,-3.845 -5.511,-8.771 -5.319,-10.412 1.595,2.15 2.704,2.552 3.802,2.924 -7.561,-18.724 -7.982,-1.032 -13.711,-19.059 l 1.214,-0.097 c -0.93,-1.394 -1.494,-2.909 -2.237,-4.4 l 0.524,-5.244 c -5.442,-6.277 -1.522,-26.707 -0.737,-37.907 0.543,-4.555 4.542,-9.402 7.584,-17.009 l -1.853,-0.317 c 3.543,-6.166 20.222,-24.764 27.946,-23.806 3.744,-4.694 -0.741,-0.021 -1.473,-1.2 8.22,-8.491 10.806,-6.001 16.351,-7.527 5.982,-3.544 -5.136,1.383 -2.294,-1.353 10.34,-2.639 7.327,-5.995 20.816,-7.332 1.424,0.808 -3.3,1.246 -4.486,2.296 8.615,-4.206 27.267,-3.249 39.383,2.337 14.059,6.56 29.852,25.944 30.477,44.18 l 0.709,0.19 c -0.36,7.25 1.108,15.633 -1.436,23.336 l 1.732,-3.642"
       id="path3596"
       style="fill:url(#SVGID_6_)" />
    <radialGradient
       cx="516.91992"
       cy="387.2793"
       r="4.5840001"
       id="radialGradient4611"
       gradientUnits="userSpaceOnUse"
       gradientTransform="matrix(1.0725,0,0,0.9931,-22.7588,-0.2271)">
      <stop
         id="stop4613"
         style="stop-color:#fff1e9;stop-opacity:1"
         offset="0" />
      <stop
         id="stop4615"
         style="stop-color:#ffffff;stop-opacity:0.2"
         offset="1" />
    </radialGradient>
    <path
       d="m 528.655,378.797 -0.481,2.4 c 2.256,3.059 4.047,6.374 6.928,8.765 -2.075,-4.037 -3.613,-5.706 -6.447,-11.165"
       id="path3603"
       style="fill:url(#SVGID_7_)" />
    <radialGradient
       cx="518.35162"
       cy="380.75201"
       r="2.9717"
       id="radialGradient4618"
       gradientUnits="userSpaceOnUse"
       gradientTransform="matrix(1.0725,0,0,0.9931,-22.7588,-0.2271)">
      <stop
         id="stop4620"
         style="stop-color:#fff1e9;stop-opacity:1"
         offset="0" />
      <stop
         id="stop4622"
         style="stop-color:#ffffff;stop-opacity:0.2"
         offset="1" />
    </radialGradient>
    <path
       d="m 533.989,378.589 c -1.191,-1.319 -1.901,-2.907 -2.69,-4.488 0.754,2.777 2.306,5.165 3.748,7.593 l -1.058,-3.105"
       id="path3610"
       style="fill:url(#SVGID_8_)" />
    <radialGradient
       cx="604.08398"
       cy="371.05859"
       r="7.5440001"
       id="radialGradient4625"
       gradientUnits="userSpaceOnUse"
       gradientTransform="matrix(1.0725,0,0,0.9931,-22.7588,-0.2271)">
      <stop
         id="stop4627"
         style="stop-color:#fff1e9;stop-opacity:1"
         offset="0" />
      <stop
         id="stop4629"
         style="stop-color:#ffffff;stop-opacity:0.2"
         offset="1" />
    </radialGradient>
    <path
       d="m 628.363,358.111 -0.505,1.263 c -0.922,6.556 -2.919,13.044 -5.979,19.058 3.38,-6.348 5.568,-13.289 6.484,-20.321"
       id="path3617"
       style="fill:url(#SVGID_9_)" />
    <radialGradient
       cx="540.73053"
       cy="267.4238"
       r="3.1712"
       id="radialGradient4632"
       gradientUnits="userSpaceOnUse"
       gradientTransform="matrix(1.0725,0,0,0.9931,-22.7588,-0.2271)">
      <stop
         id="stop4634"
         style="stop-color:#fff1e9;stop-opacity:1"
         offset="0" />
      <stop
         id="stop4636"
         style="stop-color:#ffffff;stop-opacity:0.2"
         offset="1" />
    </radialGradient>
    <path
       d="m 553.787,265.863 c 2.318,-0.848 5.704,-0.466 8.165,-1.023 -3.21,0.267 -6.4,0.429 -9.557,0.835 l 1.392,0.188"
       id="path3624"
       style="fill:url(#SVGID_10_)" />
    <radialGradient
       cx="461.86719"
       cy="314.1152"
       r="2.1212001"
       id="radialGradient4639"
       gradientUnits="userSpaceOnUse"
       gradientTransform="matrix(1.0725,0,0,0.9931,-22.7588,-0.2271)">
      <stop
         id="stop4641"
         style="stop-color:#fff1e9;stop-opacity:1"
         offset="0" />
      <stop
         id="stop4643"
         style="stop-color:#ffffff;stop-opacity:0.2"
         offset="1" />
    </radialGradient>
    <path
       d="m 472.303,309.113 c 0.534,4.942 -3.726,6.859 0.944,3.601 2.499,-5.628 -0.98,-1.553 -0.944,-3.601"
       id="path3631"
       style="fill:url(#SVGID_11_)" />
    <radialGradient
       cx="457.18951"
       cy="330.90631"
       r="2.6271"
       id="radialGradient4646"
       gradientUnits="userSpaceOnUse"
       gradientTransform="matrix(1.0725,0,0,0.9931,-22.7588,-0.2271)">
      <stop
         id="stop4648"
         style="stop-color:#fff1e9;stop-opacity:1"
         offset="0" />
      <stop
         id="stop4650"
         style="stop-color:#ffffff;stop-opacity:0.2"
         offset="1" />
    </radialGradient>
    <path
       d="m 466.816,331.986 c 1.074,-3.295 1.27,-5.273 1.679,-7.181 -2.969,3.795 -1.366,4.601 -1.679,7.181"
       id="path3638"
       style="fill:url(#radialGradient4653)" />
  </g>
  <g
     transform="matrix(2.3114404,0,0,2.3114404,432.28539,-763.51164)"
     id="g3642"
     style="opacity:0.8">
    <path
       d="m 30.996,450.854 c -0.025,0.027 -0.025,4.313 -0.08,5.434 -0.053,0.904 -0.133,2.85 -2.05,2.85 -1.971,0 -2.45,-2.266 -2.609,-3.252 -0.186,-1.09 -0.186,-1.997 -0.186,-2.395 0,-1.279 0.08,-4.849 3.089,-4.849 0.904,0 1.411,0.267 1.811,0.479 l 0.025,1.733 z m -7.722,3.142 c 0,7.512 3.995,7.512 4.582,7.512 1.65,0 2.716,-0.907 3.167,-2.477 l 0.054,2.37 c 0.506,-0.03 1.012,-0.081 1.837,-0.081 0.293,0 0.532,0 0.747,0.026 0.213,0 0.425,0.026 0.666,0.056 -0.426,-0.853 -0.746,-2.771 -0.746,-6.928 0,-4.047 0,-10.89 0.346,-12.968 -0.958,0.454 -1.785,0.746 -3.595,0.906 0.719,0.771 0.719,1.172 0.719,4.685 -0.505,-0.158 -1.144,-0.346 -2.235,-0.346 -4.77,0.001 -5.542,4.156 -5.542,7.245"
       id="path3644"
       style="opacity:0.8;fill:#ffffff" />
    <path
       d="m 37.715,452.638 c 0.027,-2.211 0.48,-4.181 2.37,-4.181 2.077,0 2.236,2.289 2.183,4.181 h -4.553 z m 7.19,0.267 c 0,-3.118 -0.612,-6.18 -4.554,-6.18 -5.431,0 -5.431,6.02 -5.431,7.297 0,5.404 2.421,7.535 6.496,7.535 1.811,0 2.69,-0.267 3.169,-0.397 -0.025,-0.961 0.107,-1.571 0.268,-2.398 -0.56,0.348 -1.279,0.8 -2.878,0.8 -4.153,0 -4.207,-3.783 -4.207,-5.089 h 7.085 l 0.052,-1.568"
       id="path3646"
       style="opacity:0.8;fill:#ffffff" />
    <path
       d="m 53.567,454.049 c 0,2.476 -0.453,5.809 -3.541,5.809 -0.427,0 -0.958,-0.083 -1.304,-0.163 -0.055,-0.959 -0.055,-2.61 -0.055,-4.527 0,-2.289 0.239,-3.486 0.427,-4.074 0.559,-1.891 1.811,-1.916 2.049,-1.916 2.025,-10e-4 2.424,2.795 2.424,4.871 z m -7.641,2.902 c 0,1.973 0,3.092 -0.319,3.941 1.09,0.427 2.449,0.665 4.075,0.665 1.037,0 4.046,0 5.67,-3.327 0.773,-1.545 1.039,-3.623 1.039,-5.194 0,-0.959 -0.106,-3.062 -0.879,-4.394 -0.745,-1.25 -1.943,-1.891 -3.221,-1.891 -2.557,0 -3.301,2.131 -3.701,3.223 0,-1.357 0.026,-6.099 0.239,-8.521 -1.73,0.799 -2.797,0.932 -3.94,1.039 1.038,0.425 1.038,2.184 1.038,7.909 v 6.55"
       id="path3648"
       style="opacity:0.8;fill:#ffffff" />
    <path
       d="m 61.511,461.401 c -0.534,-0.081 -0.908,-0.134 -1.68,-0.134 -0.851,0 -1.438,0.053 -2.05,0.134 0.267,-0.509 0.373,-0.751 0.453,-2.479 0.106,-2.371 0.134,-8.709 -0.052,-10.041 -0.134,-1.013 -0.373,-1.171 -0.746,-1.438 2.184,-0.214 2.795,-0.372 3.808,-0.853 -0.213,1.171 -0.24,1.758 -0.24,3.542 -0.053,9.19 -0.082,10.178 0.507,11.269"
       id="path3650"
       style="opacity:0.8;fill:#ffffff" />
    <path
       d="m 70.037,453.861 c -0.054,1.678 -0.08,2.852 -0.534,3.782 -0.559,1.198 -1.49,1.545 -2.184,1.545 -1.599,0 -1.944,-1.331 -1.944,-2.637 0,-2.503 2.238,-2.691 3.249,-2.691 l 1.413,10e-4 0,0 0,0 z m -7.324,3.278 c 0,1.677 0.507,3.355 1.998,4.075 0.666,0.294 1.331,0.294 1.545,0.294 2.451,0 3.275,-1.813 3.781,-2.934 -0.027,1.172 0,1.894 0.081,2.827 0.479,-0.03 0.958,-0.082 1.757,-0.082 0.453,0 0.878,0.052 1.33,0.082 -0.293,-0.454 -0.452,-0.722 -0.532,-1.759 -0.053,-1.012 -0.053,-2.025 -0.053,-3.438 l 0.027,-5.432 c 0,-2.024 -0.534,-4.022 -4.528,-4.022 -2.636,0 -4.18,0.8 -4.952,1.2 0.32,0.585 0.586,1.09 0.826,2.237 1.04,-0.907 2.398,-1.387 3.781,-1.387 2.212,0 2.212,1.467 2.212,3.54 -0.507,-0.024 -0.934,-0.076 -1.653,-0.076 -3.383,0.003 -5.62,1.306 -5.62,4.875"
       id="path3652"
       style="opacity:0.8;fill:#ffffff" />
    <path
       d="m 85.374,458.763 c 0.027,0.907 0.027,1.864 0.4,2.639 -0.587,-0.055 -0.934,-0.134 -2.023,-0.134 -0.64,0 -0.986,0.053 -1.493,0.134 0.106,-0.348 0.16,-0.479 0.214,-0.933 0.08,-0.611 0.133,-2.664 0.133,-3.385 v -2.876 c 0,-1.25 0,-3.063 -0.081,-3.701 -0.053,-0.451 -0.186,-1.678 -1.73,-1.678 -1.518,0 -2.024,1.118 -2.21,2.024 -0.211,0.932 -0.211,1.943 -0.211,5.886 0.025,3.409 0.025,3.729 0.292,4.662 -0.453,-0.056 -1.011,-0.109 -1.809,-0.109 -0.641,0 -1.067,0.027 -1.598,0.109 0.186,-0.426 0.294,-0.642 0.346,-2.132 0.055,-1.464 0.161,-8.656 -0.08,-10.36 -0.134,-1.038 -0.399,-1.276 -0.692,-1.543 2.157,-0.107 2.85,-0.453 3.516,-0.799 v 2.822 c 0.319,-0.828 0.985,-2.664 3.648,-2.664 3.327,0 3.354,2.423 3.381,4.021 v 8.017"
       id="path3654"
       style="opacity:0.8;fill:#ffffff" />
    <path
       d="m 61.734,442.824 -2.206,2.204 -2.205,-2.204 2.206,-2.204 2.205,2.204"
       id="path3656"
       style="opacity:0.8;fill:#ffffff" />
  </g>
  <text
     x="515.56561"
     y="337.55661"
     transform="scale(1.0644644,0.9394396)"
     id="text5281"
     xml:space="preserve"
     style="font-size:14.74292755px;font-style:normal;font-variant:normal;font-weight:normal;font-stretch:normal;line-height:125%;letter-spacing:0px;word-spacing:0px;opacity:0.8;fill:#eeeeec;fill-opacity:1;stroke:none"><tspan
       x="515.56561"
       y="337.55661"
       id="tspan5283"
       style="font-style:normal;font-variant:normal;font-weight:bold;font-stretch:normal;fill:#eeeeec;fill-opacity:1;font-family:Liberation Sans;-inkscape-font-specification:Liberation Sans Bold">GNU/Linux</tspan></text>
</svg>
