<?xml version="1.0" encoding="UTF-8" standalone="no"?>
<!-- Created with Inkscape (http://www.inkscape.org/) -->

<svg
   xmlns:ns2="http://ns.adobe.com/AdobeIllustrator/10.0/"
   xmlns:dc="http://purl.org/dc/elements/1.1/"
   xmlns:cc="http://creativecommons.org/ns#"
   xmlns:rdf="http://www.w3.org/1999/02/22-rdf-syntax-ns#"
   xmlns:svg="http://www.w3.org/2000/svg"
   xmlns="http://www.w3.org/2000/svg"
   xmlns:sodipodi="http://sodipodi.sourceforge.net/DTD/sodipodi-0.dtd"
   xmlns:inkscape="http://www.inkscape.org/namespaces/inkscape"
   width="640"
   height="480"
   viewBox="0 0 169.33333 127"
   version="1.1"
   id="svg8"
   inkscape:version="0.92.2 (5c3e80d, 2017-08-06)"
   sodipodi:docname="grub2.svg"
   inkscape:export-filename="C:\Users\xine\Documents\2018-debian-buster\futurePrototype-source\boot-screen\grub2\png\grub2.png"
   inkscape:export-xdpi="96"
   inkscape:export-ydpi="96">
  <defs
     id="defs2" />
  <sodipodi:namedview
     id="base"
     pagecolor="#ffffff"
     bordercolor="#b20eb2"
     borderopacity="1"
     inkscape:pageopacity="0.0"
     inkscape:pageshadow="2"
     inkscape:zoom="1.0962214"
     inkscape:cx="230.62602"
     inkscape:cy="140.95425"
     inkscape:document-units="px"
     inkscape:current-layer="layer1"
     showgrid="false"
     units="px"
     borderlayer="true"
     inkscape:showpageshadow="false"
     showborder="true"
     inkscape:window-width="1920"
     inkscape:window-height="1017"
     inkscape:window-x="-8"
     inkscape:window-y="-8"
     inkscape:window-maximized="1"
     inkscape:snap-bbox="true"
     inkscape:bbox-paths="true"
     inkscape:bbox-nodes="true"
     inkscape:snap-bbox-edge-midpoints="true"
     inkscape:snap-bbox-midpoints="true"
     inkscape:object-paths="true"
     inkscape:snap-intersection-paths="true"
     inkscape:snap-smooth-nodes="true"
     inkscape:snap-midpoints="true"
     inkscape:snap-page="true"
     inkscape:snap-global="true"
     showguides="true"
     inkscape:guide-bbox="true">
    <sodipodi:guide
       position="162.13518,52.785059"
       orientation="1,0"
       id="guide850"
       inkscape:locked="false" />
    <sodipodi:guide
       position="171.72019,37.665042"
       orientation="0,1"
       id="guide852"
       inkscape:locked="false" />
    <sodipodi:guide
       position="143.37016,76.005085"
       orientation="1,0"
       id="guide856"
       inkscape:locked="false" />
  </sodipodi:namedview>
  <metadata
     id="metadata5">
    <rdf:RDF>
      <cc:Work
         rdf:about="">
        <dc:format>image/svg+xml</dc:format>
        <dc:type
           rdf:resource="http://purl.org/dc/dcmitype/StillImage" />
        <dc:title />
      </cc:Work>
    </rdf:RDF>
  </metadata>
  <g
     inkscape:label="Layer 1"
     inkscape:groupmode="layer"
     id="layer1"
     transform="translate(0,-169.99999)">
    <rect
       style="opacity:1;fill:#1f2b43;fill-opacity:1;fill-rule:nonzero;stroke:none;stroke-width:2.64583325;stroke-linecap:square;stroke-linejoin:miter;stroke-miterlimit:4;stroke-dasharray:none;stroke-dashoffset:0;stroke-opacity:1;paint-order:normal"
       id="rect812"
       width="169.33333"
       height="127"
       x="0"
       y="169.99998" />
    <g
       id="g898">
      <path
         id="rect839"
         d="m -33.261307,169.99998 v 127 H 82.547176 c 4.192938,-6.54594 6.329355,-14.22965 4.800511,-22.10431 C 85.843181,265.01113 76.986082,258.1073 67.595343,256.24267 55.325155,254.04654 42.153,255.59484 30.674609,249.79976 10.763896,240.65962 -0.32205278,216.49222 5.3925381,195.41514 7.8514351,185.22667 14.074137,176.32722 22.285911,169.99998 Z"
         style="display:inline;opacity:0.05;fill:#ffffff;fill-opacity:1;fill-rule:nonzero;stroke:none;stroke-width:6.98096466;stroke-linecap:butt;stroke-linejoin:round;stroke-miterlimit:4;stroke-dasharray:none;stroke-dashoffset:0;stroke-opacity:1;paint-order:normal;enable-background:new"
         inkscape:connector-curvature="0" />
      <path
         id="rect841"
         d="m 154.94059,254.19019 c -47.35349,-0.0849 -75.256302,21.53271 -104.005608,19.52645 -44.7296269,-3.12141 -55.1996392,9.6586 -84.196289,17.36237 v 5.92097 H 207.56832 v -37.99044 c -15.26482,0.26404 -32.7619,-4.64438 -51.50555,-4.81326 -0.3753,-0.003 -0.74931,-0.006 -1.12218,-0.006 z"
         style="display:inline;opacity:0.05;fill:#ffffff;fill-opacity:1;fill-rule:nonzero;stroke:none;stroke-width:6.98096466;stroke-linecap:butt;stroke-linejoin:round;stroke-miterlimit:4;stroke-dasharray:none;stroke-dashoffset:0;stroke-opacity:1;paint-order:normal;enable-background:new"
         inkscape:connector-curvature="0" />
      <path
         id="rect843"
         d="m -33.261307,250.38049 v 46.61949 H 207.56832 v -18.60869 c -15.43274,-6.13664 -38.47296,-11.41183 -55.97406,-9.37834 -26.01466,3.02267 -81.355427,26.43692 -122.531495,14.34629 -28.52255306,-8.37515 -40.588115,-27.22462 -62.324072,-32.97875 z"
         style="display:inline;opacity:0.05;fill:#ffffff;fill-opacity:1;fill-rule:nonzero;stroke:none;stroke-width:6.98096466;stroke-linecap:butt;stroke-linejoin:round;stroke-miterlimit:4;stroke-dasharray:none;stroke-dashoffset:0;stroke-opacity:1;paint-order:normal;enable-background:new"
         inkscape:connector-curvature="0" />
      <path
         id="rect845"
         d="m -33.261307,169.99998 v 73.21759 c 13.926172,-0.5511 30.4916783,-3.60555 37.9845811,-7.12905 11.4648309,-5.39131 20.6951999,-15.36222 25.1852579,-27.2057 3.874998,-10.22113 4.226537,-21.74011 0.98197,-32.17834 -0.714057,-2.2972 -1.601479,-4.53884 -2.646869,-6.7045 z"
         style="display:inline;opacity:0.05;fill:#ffffff;fill-opacity:1;fill-rule:nonzero;stroke:none;stroke-width:6.98096466;stroke-linecap:butt;stroke-linejoin:round;stroke-miterlimit:4;stroke-dasharray:none;stroke-dashoffset:0;stroke-opacity:1;paint-order:normal;enable-background:new"
         inkscape:connector-curvature="0" />
      <path
         id="rect847"
         d="m -33.261307,169.99998 v 52.33261 c 8.730032,1.83049 17.660256,2.70253 26.579589,2.55982 21.849748,-0.3496 43.57055,-6.78479 62.084526,-18.3936 7.722928,-4.8425 14.949063,-10.59016 23.291477,-14.26407 8.324004,-3.66579 17.588708,-5.13203 26.649685,-4.34059 9.06093,0.79144 17.90298,3.82724 25.6068,8.66235 15.40764,9.67022 25.84913,26.54461 28.5565,44.53291 0.85651,5.69073 1.00641,11.56184 2.99345,16.96273 2.39207,6.50171 7.33616,11.85616 13.1318,15.65153 5.79563,3.79537 12.42393,6.14172 19.12832,7.88813 4.21344,1.09758 8.51784,1.98541 12.80748,2.90983 V 169.99998 Z"
         style="display:inline;opacity:0.05;fill:#ffffff;fill-opacity:1;fill-rule:nonzero;stroke:none;stroke-width:6.98096466;stroke-linecap:butt;stroke-linejoin:round;stroke-miterlimit:4;stroke-dasharray:none;stroke-dashoffset:0;stroke-opacity:1;paint-order:normal;enable-background:new"
         inkscape:connector-curvature="0" />
      <path
         id="rect849"
         d="m 130.5654,169.99998 c -20.26219,7.16541 -38.094186,23.16046 -46.208509,44.53463 -14.766546,38.89693 65.267059,55.50176 46.534059,10.09045 -16.00167,-38.79019 41.01726,-14.67933 76.67737,40.71875 v -79.78738 c -5.42138,-2.64886 -13.5011,-7.1081 -26.28436,-13.47286 -1.54285,-0.76819 -3.10832,-1.46193 -4.69258,-2.08359 z"
         style="display:inline;opacity:0.05;fill:#ffffff;fill-opacity:1;fill-rule:nonzero;stroke:none;stroke-width:6.98096466;stroke-linecap:butt;stroke-linejoin:round;stroke-miterlimit:4;stroke-dasharray:none;stroke-dashoffset:0;stroke-opacity:1;paint-order:normal;enable-background:new"
         inkscape:connector-curvature="0" />
    </g>
    <g
       transform="matrix(0.24705277,0,0,0.24705277,146.77077,268.61985)"
       id="Layer_1"
       ns2:layer="yes"
       ns2:dimmedPercent="50"
       ns2:rgbTrio="#4F008000FFFF"
       style="opacity:1;fill:#62728b;fill-opacity:1;stroke-width:1.07095873">
      <g
         id="g28"
         style="fill:#62728b;fill-opacity:1;stroke-width:1.07095873">
        <path
           style="fill:#62728b;fill-opacity:1;stroke-width:1.07095873"
           inkscape:connector-curvature="0"
           ns2:knockout="Off"
           d="m 51.986,57.297 c -1.797,0.025 0.34,0.926 2.686,1.287 0.648,-0.506 1.236,-1.018 1.76,-1.516 -1.461,0.358 -2.948,0.366 -4.446,0.229"
           id="path4" />
        <path
           style="fill:#62728b;fill-opacity:1;stroke-width:1.07095873"
           inkscape:connector-curvature="0"
           ns2:knockout="Off"
           d="m 61.631,54.893 c 1.07,-1.477 1.85,-3.094 2.125,-4.766 -0.24,1.192 -0.887,2.221 -1.496,3.307 -3.359,2.115 -0.316,-1.256 -0.002,-2.537 -3.612,4.546 -0.496,2.726 -0.627,3.996"
           id="path6" />
        <path
           style="fill:#62728b;fill-opacity:1;stroke-width:1.07095873"
           inkscape:connector-curvature="0"
           ns2:knockout="Off"
           d="m 65.191,45.629 c 0.217,-3.236 -0.637,-2.213 -0.924,-0.978 0.335,0.174 0.6,2.281 0.924,0.978"
           id="path8" />
        <path
           style="fill:#62728b;fill-opacity:1;stroke-width:1.07095873"
           inkscape:connector-curvature="0"
           ns2:knockout="Off"
           d="m 45.172,1.399 c 0.959,0.172 2.072,0.304 1.916,0.533 1.049,-0.23 1.287,-0.442 -1.916,-0.533"
           id="path10" />
        <path
           style="fill:#62728b;fill-opacity:1;stroke-width:1.07095873"
           inkscape:connector-curvature="0"
           ns2:knockout="Off"
           d="M 47.088,1.932 46.41,2.072 47.041,2.016 47.088,1.932"
           id="path12" />
        <path
           style="fill:#62728b;fill-opacity:1;stroke-width:1.07095873"
           inkscape:connector-curvature="0"
           ns2:knockout="Off"
           d="m 76.992,46.856 c 0.107,2.906 -0.85,4.316 -1.713,6.812 l -1.553,0.776 c -1.271,2.468 0.123,1.567 -0.787,3.53 -1.984,1.764 -6.021,5.52 -7.313,5.863 -0.943,-0.021 0.639,-1.113 0.846,-1.541 -2.656,1.824 -2.131,2.738 -6.193,3.846 L 60.16,65.878 C 50.142,70.591 36.226,61.251 36.409,48.507 c -0.107,0.809 -0.304,0.607 -0.526,0.934 -0.517,-6.557 3.028,-13.143 9.007,-15.832 5.848,-2.895 12.704,-1.707 16.893,2.197 -2.301,-3.014 -6.881,-6.209 -12.309,-5.91 -5.317,0.084 -10.291,3.463 -11.951,7.131 -2.724,1.715 -3.04,6.611 -4.227,7.507 -1.597,11.737 3.004,16.808 10.787,22.773 1.225,0.826 0.345,0.951 0.511,1.58 -2.586,-1.211 -4.954,-3.039 -6.901,-5.277 1.033,1.512 2.148,2.982 3.589,4.137 -2.438,-0.826 -5.695,-5.908 -6.646,-6.115 4.203,7.525 17.052,13.197 23.78,10.383 -3.113,0.115 -7.068,0.064 -10.566,-1.229 -1.469,-0.756 -3.467,-2.322 -3.11,-2.615 9.182,3.43 18.667,2.598 26.612,-3.771 2.021,-1.574 4.229,-4.252 4.867,-4.289 -0.961,1.445 0.164,0.695 -0.574,1.971 2.014,-3.248 -0.875,-1.322 2.082,-5.609 l 1.092,1.504 c -0.406,-2.696 3.348,-5.97 2.967,-10.234 0.861,-1.304 0.961,1.403 0.047,4.403 1.268,-3.328 0.334,-3.863 0.66,-6.609 0.352,0.923 0.814,1.904 1.051,2.878 -0.826,-3.216 0.848,-5.416 1.262,-7.285 -0.408,-0.181 -1.275,1.422 -1.473,-2.377 0.029,-1.65 0.459,-0.865 0.625,-1.271 -0.324,-0.186 -1.174,-1.451 -1.691,-3.877 0.375,-0.57 1.002,1.478 1.512,1.562 -0.328,-1.929 -0.893,-3.4 -0.916,-4.88 -1.49,-3.114 -0.527,0.415 -1.736,-1.337 -1.586,-4.947 1.316,-1.148 1.512,-3.396 2.404,3.483 3.775,8.881 4.404,11.117 -0.48,-2.726 -1.256,-5.367 -2.203,-7.922 0.73,0.307 -1.176,-5.609 0.949,-1.691 C 83.519,18.706 76.074,10.902 69.225,7.24 70.063,8.007 71.121,8.97 70.741,9.121 67.335,7.093 67.934,6.935 67.446,6.078 64.671,4.949 64.489,6.169 62.651,6.08 57.421,3.306 56.413,3.601 51.6,1.863 l 0.219,1.023 c -3.465,-1.154 -4.037,0.438 -7.782,0.004 -0.228,-0.178 1.2,-0.644 2.375,-0.815 -3.35,0.442 -3.193,-0.66 -6.471,0.122 0.808,-0.567 1.662,-0.942 2.524,-1.424 -2.732,0.166 -6.522,1.59 -5.352,0.295 -4.456,1.988 -12.37,4.779 -16.811,8.943 l -0.14,-0.933 c -2.035,2.443 -8.874,7.296 -9.419,10.46 l -0.544,0.127 c -1.059,1.793 -1.744,3.825 -2.584,5.67 -1.385,2.36 -2.03,0.908 -1.833,1.278 -2.724,5.523 -4.077,10.164 -5.246,13.97 0.833,1.245 0.02,7.495 0.335,12.497 -1.368,24.704 17.338,48.69 37.785,54.228 2.997,1.072 7.454,1.031 11.245,1.141 -4.473,-1.279 -5.051,-0.678 -9.408,-2.197 -3.143,-1.48 -3.832,-3.17 -6.058,-5.102 l 0.881,1.557 c -4.366,-1.545 -2.539,-1.912 -6.091,-3.037 l 0.941,-1.229 C 28.751,98.334 26.418,96.056 25.78,94.795 l -1.548,0.061 c -1.86,-2.295 -2.851,-3.949 -2.779,-5.23 l -0.5,0.891 c -0.567,-0.973 -6.843,-8.607 -3.587,-6.83 -0.605,-0.553 -1.409,-0.9 -2.281,-2.484 l 0.663,-0.758 c -1.567,-2.016 -2.884,-4.6 -2.784,-5.461 0.836,1.129 1.416,1.34 1.99,1.533 -3.957,-9.818 -4.179,-0.541 -7.176,-9.994 L 8.412,66.472 C 7.926,65.74 7.631,64.945 7.24,64.165 l 0.276,-2.75 C 4.667,58.121 6.719,47.409 7.13,41.534 7.415,39.145 9.508,36.602 11.1,32.614 l -0.97,-0.167 c 1.854,-3.234 10.586,-12.988 14.63,-12.486 1.959,-2.461 -0.389,-0.009 -0.772,-0.629 4.303,-4.453 5.656,-3.146 8.56,-3.947 3.132,-1.859 -2.688,0.725 -1.203,-0.709 5.414,-1.383 3.837,-3.144 10.9,-3.846 0.745,0.424 -1.729,0.655 -2.35,1.205 4.511,-2.207 14.275,-1.705 20.617,1.225 7.359,3.439 15.627,13.605 15.953,23.17 l 0.371,0.1 c -0.188,3.802 0.582,8.199 -0.752,12.238 l 0.908,-1.912"
           id="path14" />
        <path
           style="fill:#62728b;fill-opacity:1;stroke-width:1.07095873"
           inkscape:connector-curvature="0"
           ns2:knockout="Off"
           d="m 32.372,59.764 -0.252,1.26 c 1.181,1.604 2.118,3.342 3.626,4.596 -1.085,-2.118 -1.891,-2.993 -3.374,-5.856"
           id="path16" />
        <path
           style="fill:#62728b;fill-opacity:1;stroke-width:1.07095873"
           inkscape:connector-curvature="0"
           ns2:knockout="Off"
           d="m 35.164,59.654 c -0.625,-0.691 -0.995,-1.523 -1.409,-2.352 0.396,1.457 1.207,2.709 1.962,3.982 l -0.553,-1.63"
           id="path18" />
        <path
           style="fill:#62728b;fill-opacity:1;stroke-width:1.07095873"
           inkscape:connector-curvature="0"
           ns2:knockout="Off"
           d="m 84.568,48.916 -0.264,0.662 c -0.484,3.438 -1.529,6.84 -3.131,9.994 1.77,-3.328 2.915,-6.968 3.395,-10.656"
           id="path20" />
        <path
           style="fill:#62728b;fill-opacity:1;stroke-width:1.07095873"
           inkscape:connector-curvature="0"
           ns2:knockout="Off"
           d="M 45.527,0.537 C 46.742,0.092 48.514,0.293 49.803,0 48.123,0.141 46.451,0.225 44.8,0.438 l 0.727,0.099"
           id="path22" />
        <path
           style="fill:#62728b;fill-opacity:1;stroke-width:1.07095873"
           inkscape:connector-curvature="0"
           ns2:knockout="Off"
           d="m 2.872,23.219 c 0.28,2.592 -1.95,3.598 0.494,1.889 1.31,-2.951 -0.512,-0.815 -0.494,-1.889"
           id="path24" />
        <path
           style="fill:#62728b;fill-opacity:1;stroke-width:1.07095873"
           inkscape:connector-curvature="0"
           ns2:knockout="Off"
           d="M 0,35.215 C 0.563,33.487 0.665,32.449 0.88,31.449 -0.676,33.438 0.164,33.862 0,35.215"
           id="path26" />
      </g>
    </g>
  </g>
</svg>
