<?xml version="1.0" encoding="UTF-8" standalone="no"?>
<svg
   xmlns:dc="http://purl.org/dc/elements/1.1/"
   xmlns:cc="http://creativecommons.org/ns#"
   xmlns:rdf="http://www.w3.org/1999/02/22-rdf-syntax-ns#"
   xmlns:svg="http://www.w3.org/2000/svg"
   xmlns="http://www.w3.org/2000/svg"
   xmlns:xlink="http://www.w3.org/1999/xlink"
   xmlns:sodipodi="http://sodipodi.sourceforge.net/DTD/sodipodi-0.dtd"
   xmlns:inkscape="http://www.inkscape.org/namespaces/inkscape"
   version="1.1"
   id="Calque_1"
   x="0px"
   y="0px"
   viewBox="0 0 640 479.99999"
   xml:space="preserve"
   sodipodi:docname="emerald.svg"
   inkscape:version="1.0.2 (e86c870879, 2021-01-15)"
   width="640"
   height="480"
   inkscape:export-filename="/home/steve/debian/d-i/d-i.git/installer/build/boot/artwork/12-emerald/emerald.png"
   inkscape:export-xdpi="96"
   inkscape:export-ydpi="96"><metadata
   id="metadata301"><rdf:RDF><cc:Work
       rdf:about=""><dc:format>image/svg+xml</dc:format><dc:type
         rdf:resource="http://purl.org/dc/dcmitype/StillImage" /><dc:title></dc:title></cc:Work></rdf:RDF></metadata><defs
   id="defs299">
	
	
	
	
	
	
	
	
	
	
</defs><sodipodi:namedview
   pagecolor="#ffffff"
   bordercolor="#666666"
   borderopacity="1"
   objecttolerance="10"
   gridtolerance="10"
   guidetolerance="10"
   inkscape:pageopacity="0"
   inkscape:pageshadow="2"
   inkscape:window-width="1505"
   inkscape:window-height="1115"
   id="namedview297"
   showgrid="false"
   inkscape:zoom="1.3291398"
   inkscape:cx="216.52535"
   inkscape:cy="182.1107"
   inkscape:window-x="445"
   inkscape:window-y="5"
   inkscape:window-maximized="0"
   inkscape:current-layer="Calque_1"
   inkscape:document-rotation="0" />
<style
   type="text/css"
   id="style2">
	.st0{clip-path:url(#SVGID_00000071542680988731292510000018439444353402814855_);fill:#05475C;}
	
		.st1{opacity:0.34;clip-path:url(#SVGID_00000085243690974273077900000011262416615712914086_);fill:url(#SVGID_00000072263354255047025890000013102887253426642863_);enable-background:new    ;}
	.st2{opacity:0.62;clip-path:url(#SVGID_00000139263100654146983480000006272638575328240532_);}
	.st3{opacity:0.34;fill:url(#SVGID_00000045611204893073885370000013269894862223475083_);enable-background:new    ;}
	.st4{opacity:0.34;fill:url(#SVGID_00000054236302322912223680000011333075200813354640_);enable-background:new    ;}
	.st5{opacity:0.34;fill:url(#SVGID_00000158735472467642101810000000793218095674454194_);enable-background:new    ;}
	.st6{opacity:0.34;fill:url(#SVGID_00000054970471622626129120000008582124000012569240_);enable-background:new    ;}
	.st7{opacity:0.34;fill:url(#SVGID_00000045617802322581885590000017117540530357481360_);enable-background:new    ;}
	.st8{opacity:0.34;fill:url(#SVGID_00000124133830351364159410000008068205573473757342_);enable-background:new    ;}
	.st9{opacity:0.34;fill:url(#SVGID_00000051346993954363826760000011407196415412533382_);enable-background:new    ;}
	.st10{opacity:0.34;fill:url(#SVGID_00000063623669021493640110000018074073609943828114_);enable-background:new    ;}
	.st11{opacity:0.34;fill:url(#SVGID_00000138556549459028127130000003696275348898269369_);enable-background:new    ;}
	.st12{opacity:0.34;fill:url(#SVGID_00000060004861970399718470000002238426018333512604_);enable-background:new    ;}
	.st13{opacity:0.34;fill:url(#SVGID_00000157994359395559826260000002190328101612711833_);enable-background:new    ;}
	.st14{opacity:0.34;fill:url(#SVGID_00000181060483116497177010000001648719923621255096_);enable-background:new    ;}
	.st15{opacity:0.34;fill:url(#SVGID_00000142167235154887979020000015085480388107477919_);enable-background:new    ;}
	.st16{opacity:0.34;fill:url(#SVGID_00000116947656910957083370000005132929159132619418_);enable-background:new    ;}
	.st17{opacity:0.34;fill:url(#SVGID_00000134969063157967053530000008838084406334665614_);enable-background:new    ;}
	
		.st18{opacity:0.12;clip-path:url(#SVGID_00000120519090003817143430000014751369527957968025_);fill:url(#SVGID_00000011004778891925810190000008121571088870855059_);enable-background:new    ;}
	
		.st19{opacity:0.12;clip-path:url(#SVGID_00000106111662013024606810000002717633970611550118_);fill:url(#SVGID_00000153683716182026096470000000023037524271700882_);enable-background:new    ;}
	
		.st20{opacity:0.12;clip-path:url(#SVGID_00000183956590612873169660000011894962313201843359_);fill:url(#SVGID_00000147220390516172396170000012946237539661199800_);enable-background:new    ;}
	
		.st21{opacity:0.12;clip-path:url(#SVGID_00000178191628775191767390000013712267012513785221_);fill:url(#SVGID_00000106146033874241472050000009689421648898431387_);enable-background:new    ;}
	
		.st22{opacity:0.12;clip-path:url(#SVGID_00000115510380845737719310000014559970347469282492_);fill:url(#SVGID_00000154425343835058534630000004520284171995681201_);enable-background:new    ;}
	
		.st23{opacity:0.12;clip-path:url(#SVGID_00000140704734525756634240000016841742932993985411_);fill:url(#SVGID_00000085238650639896445010000005588782577886782651_);enable-background:new    ;}
	.st24{clip-path:url(#SVGID_00000139981739315308956980000010868997781734064258_);}
	.st25{opacity:0.71;}
	.st26{fill:#FFFFFF;}
</style>
<g
   id="g12"
   transform="matrix(1,0,0,1.002021,0,-0.98119011)">
		<defs
   id="defs5">
			<rect
   id="SVGID_1_"
   y="0"
   width="640"
   height="484.60001"
   x="0" />
		</defs>
		<clipPath
   id="SVGID_00000165221556703780916170000010866235547332093090_">
			<use
   xlink:href="#SVGID_1_"
   style="overflow:visible"
   id="use7"
   x="0"
   y="0"
   width="100%"
   height="100%" />
		</clipPath>
		
			<rect
   y="0.89999998"
   style="fill:#05475c"
   width="640"
   height="484.60001"
   clip-path="url(#SVGID_00000165221556703780916170000010866235547332093090_)"
   id="rect10"
   x="0" />
	</g><g
   id="g27">
		<defs
   id="defs15">
			<rect
   id="SVGID_00000069388754183686928800000004629736924644173729_"
   y="0"
   width="640"
   height="483.70001"
   x="0" />
		</defs>
		<clipPath
   id="SVGID_00000155132189810832442100000017548490820549518009_">
			<use
   xlink:href="#SVGID_00000069388754183686928800000004629736924644173729_"
   style="overflow:visible"
   id="use17"
   x="0"
   y="0"
   width="100%"
   height="100%" />
		</clipPath>
		
			<radialGradient
   id="SVGID_00000051382217558699162500000002818355917924127389_"
   cx="67.320198"
   cy="10279.84"
   r="301.79999"
   gradientTransform="matrix(0.5,0,0,0.5,0.5399,-4690.4204)"
   gradientUnits="userSpaceOnUse">
			<stop
   offset="0"
   style="stop-color:#DAC9BA"
   id="stop20" />
			<stop
   offset="1"
   style="stop-color:#05475C;stop-opacity:0"
   id="stop22" />
		</radialGradient>
		
			<circle
   style="opacity:0.34;fill:url(#SVGID_00000051382217558699162500000002818355917924127389_);enable-background:new"
   cx="34.200001"
   cy="449.5"
   r="150.89999"
   clip-path="url(#SVGID_00000155132189810832442100000017548490820549518009_)"
   id="circle25" />
	</g><g
   id="g142">
		<defs
   id="defs30">
			<rect
   id="SVGID_00000124148156101187928870000002935036004658084790_"
   y="0"
   width="640"
   height="483.70001"
   x="0" />
		</defs>
		<clipPath
   id="SVGID_00000009557460816904590930000007797994413251903375_">
			<use
   xlink:href="#SVGID_00000124148156101187928870000002935036004658084790_"
   style="overflow:visible"
   id="use32"
   x="0"
   y="0"
   width="100%"
   height="100%" />
		</clipPath>
		<g
   style="opacity:0.62"
   clip-path="url(#SVGID_00000009557460816904590930000007797994413251903375_)"
   id="g140">
			
				<radialGradient
   id="SVGID_00000070817965774873609210000009896994520112849083_"
   cx="-1719.8934"
   cy="5956.8662"
   r="113.8"
   gradientTransform="matrix(0.8642,0.5228,-0.5025,0.9115,4505.9019,-4287.3071)"
   gradientUnits="userSpaceOnUse">
				<stop
   offset="0"
   style="stop-color:#18F5B0"
   id="stop35" />
				<stop
   offset="1"
   style="stop-color:#05475C;stop-opacity:0"
   id="stop37" />
			</radialGradient>
			
				<ellipse
   style="opacity:0.34;fill:url(#SVGID_00000070817965774873609210000009896994520112849083_);enable-background:new"
   cx="26.799999"
   cy="237.39999"
   rx="113.8"
   ry="119.2"
   id="ellipse40" />
			
				<linearGradient
   id="SVGID_00000101795260509640636020000012437242171126501814_"
   gradientUnits="userSpaceOnUse"
   x1="2583.5959"
   y1="-454.25641"
   x2="2712.8965"
   y2="-454.25641"
   gradientTransform="matrix(-0.7151,0.699,-0.5383,-0.5506,1717.1921,-2081.8496)">
				<stop
   offset="0"
   style="stop-color:#18F5B0"
   id="stop42" />
				<stop
   offset="1"
   style="stop-color:#05475C;stop-opacity:0"
   id="stop44" />
			</linearGradient>
			
				<polygon
   style="opacity:0.34;fill:url(#SVGID_00000101795260509640636020000012437242171126501814_);enable-background:new"
   points="104.9,86 -16.5,24.6 56,-86.2 146.9,59.5 "
   id="polygon47" />
			
				<linearGradient
   id="SVGID_00000106859585145232098850000002955945112293633935_"
   gradientUnits="userSpaceOnUse"
   x1="178.07179"
   y1="3684.5178"
   x2="356.27829"
   y2="3684.5178"
   gradientTransform="matrix(0.7774,0.629,-0.629,0.7774,2201.9092,-3021.4944)">
				<stop
   offset="0"
   style="stop-color:#18F5B0"
   id="stop49" />
				<stop
   offset="1"
   style="stop-color:#05475C;stop-opacity:0"
   id="stop51" />
			</linearGradient>
			
				<polygon
   style="opacity:0.34;fill:url(#SVGID_00000106859585145232098850000002955945112293633935_);enable-background:new"
   points="118.4,-54.5 196.9,-28.1 181.1,42.5 96.2,138.1 39,-3.3 56,-86.2 "
   id="polygon54" />
			
				<linearGradient
   id="SVGID_00000169530912143375906700000000621875339329320109_"
   gradientUnits="userSpaceOnUse"
   x1="-6531.374"
   y1="1569.223"
   x2="-6201.4302"
   y2="1569.223"
   gradientTransform="matrix(0.3915,-0.9202,0.9202,0.3915,1042.983,-6363.4004)">
				<stop
   offset="0"
   style="stop-color:#AABDCB"
   id="stop56" />
				<stop
   offset="1"
   style="stop-color:#05475C;stop-opacity:0"
   id="stop58" />
			</linearGradient>
			
				<polygon
   style="opacity:0.34;fill:url(#SVGID_00000169530912143375906700000000621875339329320109_);enable-background:new"
   points="140.7,58.2 -175.4,216.3 -63.2,75.8 49,-46.8 "
   id="polygon61" />
			
				<linearGradient
   id="SVGID_00000045578667995824677480000012118072077176775348_"
   gradientUnits="userSpaceOnUse"
   x1="6759.1001"
   y1="1273.7374"
   x2="6901.8306"
   y2="1273.7374"
   gradientTransform="matrix(-0.3483,0.5724,-0.7648,-0.6285,3595.4902,-3079.3232)">
				<stop
   offset="0"
   style="stop-color:#18F5B0"
   id="stop63" />
				<stop
   offset="1"
   style="stop-color:#05475C;stop-opacity:0"
   id="stop65" />
			</linearGradient>
			
				<polygon
   style="opacity:0.34;fill:url(#SVGID_00000045578667995824677480000012118072077176775348_);enable-background:new"
   points="162.5,-105.5 319.6,70.4 329.3,153.4 173,16.9 "
   id="polygon68" />
			
				<linearGradient
   id="SVGID_00000132079007386204810610000001991809070636413312_"
   gradientUnits="userSpaceOnUse"
   x1="-3473.5115"
   y1="1871.9165"
   x2="-3272.8167"
   y2="1871.9165"
   gradientTransform="matrix(0.7151,-0.699,0.699,0.7151,1303.7971,-3678.4753)">
				<stop
   offset="0"
   style="stop-color:#AABDCB"
   id="stop70" />
				<stop
   offset="1"
   style="stop-color:#05475C;stop-opacity:0"
   id="stop72" />
			</linearGradient>
			
				<polygon
   style="opacity:0.34;fill:url(#SVGID_00000132079007386204810610000001991809070636413312_);enable-background:new"
   points="200,-125.7 317.6,81.9 173,16.9 39,-3.3 107.6,-47.4 "
   id="polygon75" />
			
				<linearGradient
   id="SVGID_00000165940415883816199490000002652170903267179168_"
   gradientUnits="userSpaceOnUse"
   x1="4172.0244"
   y1="945.66931"
   x2="4326.3755"
   y2="945.66931"
   gradientTransform="matrix(-0.5898,0.8076,-0.8076,-0.5898,3412.5413,-2898.3325)">
				<stop
   offset="0"
   style="stop-color:#18F5B0"
   id="stop77" />
				<stop
   offset="1"
   style="stop-color:#05475C;stop-opacity:0"
   id="stop79" />
			</linearGradient>
			
				<polygon
   style="opacity:0.34;fill:url(#SVGID_00000165940415883816199490000002652170903267179168_);enable-background:new"
   points="209,81.9 154.1,56.9 3.2,-30.7 162.5,-105.5 "
   id="polygon82" />
			
				<linearGradient
   id="SVGID_00000079460277199837384410000007256434529950953905_"
   gradientUnits="userSpaceOnUse"
   x1="-5700.8525"
   y1="-3731.8777"
   x2="-5460.1079"
   y2="-3731.8777"
   gradientTransform="matrix(-0.2682,-0.9634,1.0501,-0.2924,2347.9292,-6172.313)">
				<stop
   offset="0"
   style="stop-color:#18F5B0"
   id="stop84" />
				<stop
   offset="1"
   style="stop-color:#05475C;stop-opacity:0"
   id="stop86" />
			</linearGradient>
			
				<polygon
   style="opacity:0.34;fill:url(#SVGID_00000079460277199837384410000007256434529950953905_);enable-background:new"
   points="-134,300.3 -44.9,162 20.4,244.3 -142.9,439.2 "
   id="polygon89" />
			
				<linearGradient
   id="SVGID_00000096769642374833351560000001367799226074404744_"
   gradientUnits="userSpaceOnUse"
   x1="5079.2051"
   y1="-3976.7305"
   x2="5331.4736"
   y2="-3976.7305"
   gradientTransform="matrix(-0.9257,0.3783,-0.3783,-0.9257,3221.5364,-5374.0972)">
				<stop
   offset="0"
   style="stop-color:#18F5B0"
   id="stop91" />
				<stop
   offset="1"
   style="stop-color:#05475C;stop-opacity:0"
   id="stop93" />
			</linearGradient>
			
				<polygon
   style="opacity:0.34;fill:url(#SVGID_00000096769642374833351560000001367799226074404744_);enable-background:new"
   points="-63.8,359.6 -137.5,401 -195.5,358.1 -215.7,220.3 -17.3,194.6 26.8,235.2 "
   id="polygon96" />
			
				<linearGradient
   id="SVGID_00000029728178370301967340000011235284565816107184_"
   gradientUnits="userSpaceOnUse"
   x1="-9159.0127"
   y1="-5494.3096"
   x2="-8863.6025"
   y2="-5494.3096"
   gradientTransform="matrix(-0.2347,-0.2596,0.879,-0.2953,2621.8279,-3787.2927)">
				<stop
   offset="0"
   style="stop-color:#AABDCB"
   id="stop98" />
				<stop
   offset="1"
   style="stop-color:#05475C;stop-opacity:0"
   id="stop100" />
			</linearGradient>
			
				<polygon
   style="opacity:0.34;fill:url(#SVGID_00000029728178370301967340000011235284565816107184_);enable-background:new"
   points="-16.5,196.8 -192.8,291.1 -175.4,216.3 53,108.4 "
   id="polygon103" />
			
				<linearGradient
   id="SVGID_00000161595143950144110780000017925993887690476720_"
   gradientUnits="userSpaceOnUse"
   x1="5745.1045"
   y1="2944.0874"
   x2="6341.5342"
   y2="2944.0874"
   gradientTransform="matrix(0.1765,0.3022,-0.9209,0.1087,1598.3757,-1774.4047)">
				<stop
   offset="0"
   style="stop-color:#AABDCB"
   id="stop105" />
				<stop
   offset="1"
   style="stop-color:#05475C;stop-opacity:0"
   id="stop107" />
			</linearGradient>
			
				<polygon
   style="opacity:0.34;fill:url(#SVGID_00000161595143950144110780000017925993887690476720_);enable-background:new"
   points="-134,300.3 9.9,292.3 110.4,461.4 -145.2,381 "
   id="polygon110" />
			
				<linearGradient
   id="SVGID_00000083799099488186877740000001427691366751589030_"
   gradientUnits="userSpaceOnUse"
   x1="-6531.374"
   y1="1531.231"
   x2="-6342.6738"
   y2="1531.231"
   gradientTransform="matrix(0.3915,-0.9202,0.9202,0.3915,1042.983,-6363.4004)">
				<stop
   offset="0"
   style="stop-color:#AABDCB"
   id="stop112" />
				<stop
   offset="1"
   style="stop-color:#05475C;stop-opacity:0"
   id="stop114" />
			</linearGradient>
			
				<polygon
   style="opacity:0.34;fill:url(#SVGID_00000083799099488186877740000001427691366751589030_);enable-background:new"
   points="53,108.4 -17.3,194.6 -175.4,216.3 -126.2,62.5 "
   id="polygon117" />
			
				<radialGradient
   id="SVGID_00000062186679139829515360000008929432546328608678_"
   cx="-3802.3752"
   cy="-2018.9218"
   r="119.51"
   gradientTransform="matrix(1,0,0,-1,0,-3076.8403)"
   gradientUnits="userSpaceOnUse">
				<stop
   offset="0"
   style="stop-color:#18F5B0"
   id="stop119" />
				<stop
   offset="1"
   style="stop-color:#05475C;stop-opacity:0"
   id="stop121" />
			</radialGradient>
			
				<ellipse
   style="opacity:0.34;fill:url(#SVGID_00000062186679139829515360000008929432546328608678_);enable-background:new"
   cx="96.199997"
   cy="13.7"
   rx="119.5"
   ry="125.2"
   id="ellipse124" />
			
				<linearGradient
   id="SVGID_00000024690754393631733010000011044239768892776096_"
   gradientUnits="userSpaceOnUse"
   x1="5079.2051"
   y1="-4032.7424"
   x2="5272.6421"
   y2="-4032.7424"
   gradientTransform="matrix(-0.9257,0.3783,-0.3783,-0.9257,3221.5364,-5374.0972)">
				<stop
   offset="0"
   style="stop-color:#18F5B0"
   id="stop126" />
				<stop
   offset="1"
   style="stop-color:#05475C;stop-opacity:0"
   id="stop128" />
			</linearGradient>
			
				<polygon
   style="opacity:0.34;fill:url(#SVGID_00000024690754393631733010000011044239768892776096_);enable-background:new"
   points="-63.8,359.6 -127,370.2 -147.1,232.3 26.8,235.2 -5.4,428 "
   id="polygon131" />
			
				<linearGradient
   id="SVGID_00000050656969083910025690000008598441663246236579_"
   gradientUnits="userSpaceOnUse"
   x1="-2724.9294"
   y1="3967.8757"
   x2="-2549.8918"
   y2="3967.8757"
   gradientTransform="matrix(0.9797,-0.2004,0.2004,0.9797,1750.7784,-4358.5493)">
				<stop
   offset="0"
   style="stop-color:#AABDCB"
   id="stop133" />
				<stop
   offset="1"
   style="stop-color:#05475C;stop-opacity:0"
   id="stop135" />
			</linearGradient>
			
				<polygon
   style="opacity:0.34;fill:url(#SVGID_00000050656969083910025690000008598441663246236579_);enable-background:new"
   points="47.6,84.7 -126.2,62.5 3.2,40 39,-3.3 "
   id="polygon138" />
		</g>
	</g><g
   id="g157">
		<defs
   id="defs145">
			<rect
   id="SVGID_00000031195912240633887000000004079428614401632700_"
   y="0"
   width="640"
   height="483.70001"
   x="0" />
		</defs>
		<clipPath
   id="SVGID_00000151507511927978965780000002387878401372756407_">
			<use
   xlink:href="#SVGID_00000031195912240633887000000004079428614401632700_"
   style="overflow:visible"
   id="use147"
   x="0"
   y="0"
   width="100%"
   height="100%" />
		</clipPath>
		
			<linearGradient
   id="SVGID_00000033359048294171688790000000775581327429353636_"
   gradientUnits="userSpaceOnUse"
   x1="-6938.3296"
   y1="1131.6506"
   x2="-6649.2324"
   y2="1131.6506"
   gradientTransform="matrix(0.4172,-0.9088,0.9088,0.4172,2531.2654,-6215.4648)">
			<stop
   offset="0"
   style="stop-color:#18F5B0"
   id="stop150" />
			<stop
   offset="1"
   style="stop-color:#05475C;stop-opacity:0"
   id="stop152" />
		</linearGradient>
		
			<polygon
   style="opacity:0.12;fill:url(#SVGID_00000033359048294171688790000000775581327429353636_);enable-background:new"
   points="589.6,300 943.4,371.9 840.8,642.9 527.3,398.7 "
   clip-path="url(#SVGID_00000151507511927978965780000002387878401372756407_)"
   id="polygon155" />
	</g><g
   id="g172">
		<defs
   id="defs160">
			<rect
   id="SVGID_00000130622640253779499030000006957545591170167218_"
   y="0"
   width="640"
   height="483.70001"
   x="0" />
		</defs>
		<clipPath
   id="SVGID_00000038377279451847958660000013948159711101587628_">
			<use
   xlink:href="#SVGID_00000130622640253779499030000006957545591170167218_"
   style="overflow:visible"
   id="use162"
   x="0"
   y="0"
   width="100%"
   height="100%" />
		</clipPath>
		
			<linearGradient
   id="SVGID_00000073712156955919745150000018014436835206889603_"
   gradientUnits="userSpaceOnUse"
   x1="58.759899"
   y1="-5871.8867"
   x2="421.16409"
   y2="-5871.8867"
   gradientTransform="matrix(-0.9511,-0.3089,0.3089,-0.9511,2700.2234,-5034.0278)">
			<stop
   offset="0"
   style="stop-color:#18F5B0"
   id="stop165" />
			<stop
   offset="1"
   style="stop-color:#05475C;stop-opacity:0"
   id="stop167" />
		</linearGradient>
		
			<polygon
   style="opacity:0.12;fill:url(#SVGID_00000073712156955919745150000018014436835206889603_);enable-background:new"
   points="617.8,645.3 474.6,667.4 465.9,494.1 559.4,194.1 708.5,470.8 807.8,602.5 "
   clip-path="url(#SVGID_00000038377279451847958660000013948159711101587628_)"
   id="polygon170" />
	</g><g
   id="g187">
		<defs
   id="defs175">
			<rect
   id="SVGID_00000118376838458325678060000015855036868445107350_"
   y="0"
   width="640"
   height="483.70001"
   x="0" />
		</defs>
		<clipPath
   id="SVGID_00000110459491631553875290000010150341677443506576_">
			<use
   xlink:href="#SVGID_00000118376838458325678060000015855036868445107350_"
   style="overflow:visible"
   id="use177"
   x="0"
   y="0"
   width="100%"
   height="100%" />
		</clipPath>
		
			<linearGradient
   id="SVGID_00000103971786709948536080000001973379522257999801_"
   gradientUnits="userSpaceOnUse"
   x1="2613.928"
   y1="4164.1494"
   x2="3052.9421"
   y2="4164.1494"
   gradientTransform="matrix(-0.03594599,0.9994,-0.9994,-0.03594599,4979.0908,-2328.8867)">
			<stop
   offset="0"
   style="stop-color:#AABDCB"
   id="stop180" />
			<stop
   offset="1"
   style="stop-color:#05475C;stop-opacity:0"
   id="stop182" />
		</linearGradient>
		
			<polygon
   style="opacity:0.12;fill:url(#SVGID_00000103971786709948536080000001973379522257999801_);enable-background:new"
   points="589.3,258.1 807.2,136.8 847.9,280.8 678.8,571.5 "
   clip-path="url(#SVGID_00000110459491631553875290000010150341677443506576_)"
   id="polygon185" />
	</g><g
   id="g202">
		<defs
   id="defs190">
			<rect
   id="SVGID_00000116237745612361073240000006150465265803419285_"
   y="0"
   width="640"
   height="483.70001"
   x="0" />
		</defs>
		<clipPath
   id="SVGID_00000145058946190271890110000017138466978116788627_">
			<use
   xlink:href="#SVGID_00000116237745612361073240000006150465265803419285_"
   style="overflow:visible"
   id="use192"
   x="0"
   y="0"
   width="100%"
   height="100%" />
		</clipPath>
		
			<linearGradient
   id="SVGID_00000030448420059369570490000000840399102467860385_"
   gradientUnits="userSpaceOnUse"
   x1="-5329.144"
   y1="523.46637"
   x2="-5071.4404"
   y2="523.46637"
   gradientTransform="matrix(0.2612,-0.9653,0.9653,0.2612,1525.5635,-4714.7476)">
			<stop
   offset="0"
   style="stop-color:#18F5B0"
   id="stop195" />
			<stop
   offset="1"
   style="stop-color:#05475C;stop-opacity:0"
   id="stop197" />
		</linearGradient>
		
			<polygon
   style="opacity:0.12;fill:url(#SVGID_00000030448420059369570490000000840399102467860385_);enable-background:new"
   points="498.9,330.8 602.4,329.8 896,368.8 803.7,610.8 "
   clip-path="url(#SVGID_00000145058946190271890110000017138466978116788627_)"
   id="polygon200" />
	</g><g
   id="g217">
		<defs
   id="defs205">
			<rect
   id="SVGID_00000101074714170627461240000013138533359750141568_"
   y="0"
   width="640"
   height="483.70001"
   x="0" />
		</defs>
		<clipPath
   id="SVGID_00000116914092487373798290000001093053265067242669_">
			<use
   xlink:href="#SVGID_00000101074714170627461240000013138533359750141568_"
   style="overflow:visible"
   id="use207"
   x="0"
   y="0"
   width="100%"
   height="100%" />
		</clipPath>
		
			<linearGradient
   id="SVGID_00000017477945025455821640000013403267416503434134_"
   gradientUnits="userSpaceOnUse"
   x1="1120.3934"
   y1="2872.0176"
   x2="1397.709"
   y2="2872.0176"
   gradientTransform="matrix(0.9919,-0.1269,0.1269,0.9919,-926.962,-2147.6309)">
			<stop
   offset="0"
   style="stop-color:#18F5B0"
   id="stop210" />
			<stop
   offset="1"
   style="stop-color:#05475C;stop-opacity:0"
   id="stop212" />
		</linearGradient>
		
			<polygon
   style="opacity:0.12;fill:url(#SVGID_00000017477945025455821640000013403267416503434134_);enable-background:new"
   points="840.1,650.5 630.1,619.4 532.6,432.2 "
   clip-path="url(#SVGID_00000116914092487373798290000001093053265067242669_)"
   id="polygon215" />
	</g><g
   id="g232">
		<defs
   id="defs220">
			<rect
   id="SVGID_00000003815786949138481970000001745649588036378536_"
   y="0"
   width="640"
   height="483.70001"
   x="0" />
		</defs>
		<clipPath
   id="SVGID_00000052802962437109526920000015325253674162927752_">
			<use
   xlink:href="#SVGID_00000003815786949138481970000001745649588036378536_"
   style="overflow:visible"
   id="use222"
   x="0"
   y="0"
   width="100%"
   height="100%" />
		</clipPath>
		
			<linearGradient
   id="SVGID_00000175296180110522475230000004885647257872674460_"
   gradientUnits="userSpaceOnUse"
   x1="-4937.0015"
   y1="-1044.0806"
   x2="-4651.3462"
   y2="-1044.0806"
   gradientTransform="matrix(-0.09480336,-0.9955,0.9955,-0.09480336,573.8284,-4451.9326)">
			<stop
   offset="0"
   style="stop-color:#18F5B0"
   id="stop225" />
			<stop
   offset="1"
   style="stop-color:#05475C;stop-opacity:0"
   id="stop227" />
		</linearGradient>
		
			<polygon
   style="opacity:0.12;fill:url(#SVGID_00000175296180110522475230000004885647257872674460_);enable-background:new"
   points="91.6,266.4 48.7,474.4 -113.7,572.9 "
   clip-path="url(#SVGID_00000052802962437109526920000015325253674162927752_)"
   id="polygon230" />
	</g><g
   id="g292"
   transform="matrix(2.1300312,0,0,2.1300312,-8.451195,-952.43665)">
		<defs
   id="defs235">
			<rect
   id="SVGID_00000105414853600283290720000017360153226701225652_"
   y="0"
   width="640"
   height="483.70001"
   x="0" />
		</defs>
		<clipPath
   id="SVGID_00000065040548837432246740000015681463041764845981_">
			<use
   xlink:href="#SVGID_00000105414853600283290720000017360153226701225652_"
   style="overflow:visible"
   id="use237"
   x="0"
   y="0"
   width="100%"
   height="100%" />
		</clipPath>
		<g
   clip-path="url(#SVGID_00000065040548837432246740000015681463041764845981_)"
   id="g290">
			<g
   class="st25"
   id="g264">
				<path
   class="st26"
   d="m 19.4,463.3 c -0.2,0 0,0.1 0.3,0.2 0.1,-0.1 0.2,-0.1 0.2,-0.2 -0.1,0 -0.3,0 -0.5,0"
   id="path240" />
				<path
   class="st26"
   d="m 20.6,463 c 0.1,-0.2 0.2,-0.4 0.3,-0.6 0,0.1 -0.1,0.3 -0.2,0.4 -0.4,0.3 0,-0.2 0,-0.3 -0.5,0.6 -0.1,0.3 -0.1,0.5"
   id="path242" />
				<path
   class="st26"
   d="m 21,461.8 c 0,-0.4 -0.1,-0.3 -0.1,-0.1 0.1,0 0.1,0.3 0.1,0.1"
   id="path244" />
				<path
   class="st26"
   d="m 18.5,456.3 c 0.1,0 0.3,0 0.2,0.1 0.2,-0.1 0.2,-0.1 -0.2,-0.1"
   id="path246" />
				<path
   class="st26"
   d="m 18.8,456.4 v 0 0 0"
   id="path248" />
				<path
   class="st26"
   d="m 22.5,462 c 0,0.4 -0.1,0.5 -0.2,0.9 l -0.2,0.1 c -0.2,0.3 0,0.2 -0.1,0.4 -0.2,0.2 -0.8,0.7 -0.9,0.7 -0.1,0 0.1,-0.1 0.1,-0.2 -0.3,0.2 -0.3,0.3 -0.8,0.5 v 0 c -1.3,0.6 -3,-0.6 -3,-2.2 0,0.1 0,0.1 -0.1,0.1 -0.1,-0.8 0.4,-1.6 1.1,-2 0.7,-0.4 1.6,-0.2 2.1,0.3 -0.3,-0.4 -0.9,-0.8 -1.5,-0.7 -0.7,0 -1.3,0.4 -1.5,0.9 -0.3,0.2 -0.4,0.8 -0.5,0.9 -0.2,1.5 0.4,2.1 1.3,2.8 0.2,0.1 0,0.1 0.1,0.2 -0.3,-0.2 -0.6,-0.4 -0.9,-0.7 0.1,0.2 0.3,0.4 0.4,0.5 -0.3,-0.1 -0.7,-0.7 -0.8,-0.8 0.5,0.9 2.1,1.6 3,1.3 -0.4,0 -0.9,0 -1.3,-0.2 -0.2,-0.1 -0.4,-0.3 -0.4,-0.3 1.1,0.4 2.3,0.3 3.3,-0.5 0.3,-0.2 0.5,-0.5 0.6,-0.5 -0.1,0.2 0,0.1 -0.1,0.2 0.3,-0.4 -0.1,-0.2 0.3,-0.7 l 0.1,0.2 c -0.1,-0.3 0.4,-0.7 0.4,-1.3 0.1,-0.2 0.1,0.2 0,0.6 0.2,-0.4 0,-0.5 0.1,-0.8 0,0.1 0.1,0.2 0.1,0.4 -0.1,-0.4 0.1,-0.7 0.2,-0.9 -0.1,0 -0.2,0.2 -0.2,-0.3 0,-0.2 0.1,-0.1 0.1,-0.2 0,0 -0.1,-0.2 -0.2,-0.5 0,-0.1 0.1,0.2 0.2,0.2 0,-0.2 -0.1,-0.4 -0.1,-0.6 -0.2,-0.4 -0.1,0.1 -0.2,-0.2 -0.2,-0.6 0.2,-0.1 0.2,-0.4 0.3,0.4 0.5,1.1 0.6,1.4 -0.1,-0.3 -0.2,-0.7 -0.3,-1 0.1,0 -0.1,-0.7 0.1,-0.2 -0.3,-1 -1.2,-2 -2.1,-2.5 0.1,0.1 0.2,0.2 0.2,0.2 -0.4,-0.3 -0.4,-0.3 -0.4,-0.4 -0.3,-0.1 -0.4,0 -0.6,0 -0.7,-0.3 -0.8,-0.3 -1.4,-0.5 v 0.1 c -0.4,-0.1 -0.5,0.1 -1,0 0,0 0.1,-0.1 0.3,-0.1 -0.4,0.1 -0.4,-0.1 -0.8,0 0.1,-0.1 0.2,-0.1 0.3,-0.2 -0.3,0 -0.8,0.2 -0.7,0 -0.6,0.2 -1.5,0.6 -2.1,1.1 V 457 c -0.3,0.3 -1.1,0.9 -1.2,1.3 H 14 c -0.1,0.2 -0.2,0.5 -0.3,0.7 -0.2,0.3 -0.3,0.1 -0.2,0.2 -0.3,0.7 -0.5,1.3 -0.7,1.7 0.1,0.2 0,0.9 0,1.6 -0.2,3.1 2.2,6.1 4.7,6.8 0.4,0.1 0.9,0.1 1.4,0.1 -0.6,-0.2 -0.6,-0.1 -1.2,-0.3 -0.4,-0.2 -0.5,-0.4 -0.8,-0.6 l 0.1,0.2 c -0.5,-0.2 -0.3,-0.2 -0.8,-0.4 l 0.1,-0.2 c -0.2,0 -0.5,-0.3 -0.5,-0.5 h -0.2 c -0.2,-0.3 -0.4,-0.5 -0.3,-0.7 l -0.1,0.1 c -0.1,-0.1 -0.9,-1.1 -0.4,-0.9 -0.1,-0.1 -0.2,-0.1 -0.3,-0.3 l 0.1,-0.1 c -0.2,-0.3 -0.4,-0.6 -0.3,-0.7 0.1,0.1 0.2,0.2 0.2,0.2 C 14,464 14,465.1 13.6,464 h 0.1 c -0.1,-0.1 -0.1,-0.2 -0.1,-0.3 v -0.3 c -0.4,-0.4 -0.1,-1.8 0,-2.5 0,-0.3 0.3,-0.6 0.5,-1.1 H 14 c 0.2,-0.4 1.3,-1.6 1.8,-1.6 0.2,-0.3 0,0 -0.1,-0.1 0.5,-0.6 0.7,-0.4 1.1,-0.5 0.4,-0.2 -0.3,0.1 -0.2,-0.1 0.7,-0.2 0.5,-0.4 1.4,-0.5 0.1,0.1 -0.2,0.1 -0.3,0.2 0.6,-0.3 1.8,-0.2 2.6,0.2 0.9,0.4 2,1.7 2,2.9 v 0 c 0,0.5 0.1,1 -0.1,1.5 l 0.3,0.2"
   id="path250" />
				<path
   class="st26"
   d="m 16.9,463.6 v 0.2 c 0.1,0.2 0.3,0.4 0.5,0.6 -0.2,-0.3 -0.3,-0.4 -0.5,-0.8"
   id="path252" />
				<path
   class="st26"
   d="m 17.3,463.6 c -0.1,-0.1 -0.1,-0.2 -0.2,-0.3 0,0.2 0.2,0.3 0.2,0.5 v -0.2"
   id="path254" />
				<path
   class="st26"
   d="m 23.5,462.2 v 0 c -0.1,0.5 -0.2,0.9 -0.4,1.3 0.1,-0.3 0.3,-0.8 0.4,-1.3"
   id="path256" />
				<path
   class="st26"
   d="m 18.6,456.2 c 0.2,-0.1 0.4,0 0.5,-0.1 -0.2,0 -0.4,0.1 -0.5,0.1 v 0"
   id="path258" />
				<path
   class="st26"
   d="m 13.2,459 c 0,0.3 -0.2,0.4 0.1,0.2 0.2,-0.3 -0.1,0 -0.1,-0.2"
   id="path260" />
				<path
   class="st26"
   d="m 12.9,460.5 c 0.1,-0.2 0.1,-0.3 0.1,-0.5 -0.2,0.3 -0.1,0.4 -0.1,0.5"
   id="path262" />
			</g>
			<g
   id="g288">
				<g
   class="st25"
   id="g280">
					<path
   class="st26"
   d="m 35.1,461.3 c 0,0 0,2.7 0,3.4 0,0.6 -0.1,1.8 -1.3,1.8 -1.2,0 -1.5,-1.4 -1.6,-2 -0.1,-0.7 -0.1,-1.3 -0.1,-1.5 0,-0.8 0,-3 1.9,-3 0.6,0 0.9,0.2 1.1,0.3 z m -4.8,2 c 0,4.7 2.5,4.7 2.9,4.7 1,0 1.7,-0.6 2,-1.6 v 1.5 c 0.3,0 0.6,0 1.2,0 0.2,0 0.3,0 0.5,0 0.1,0 0.3,0 0.4,0 -0.3,-0.5 -0.5,-1.7 -0.5,-4.4 0,-2.5 0,-6.9 0.2,-8.2 -0.6,0.3 -1.1,0.5 -2.3,0.6 0.5,0.5 0.5,0.7 0.5,3 -0.3,-0.1 -0.7,-0.2 -1.4,-0.2 -3,0.1 -3.5,2.7 -3.5,4.6"
   id="path266" />
					<path
   class="st26"
   d="m 39.4,462.5 c 0,-1.4 0.3,-2.6 1.5,-2.6 1.3,0 1.4,1.4 1.4,2.6 z m 4.5,0.1 c 0,-2 -0.4,-3.9 -2.9,-3.9 -3.4,0 -3.4,3.8 -3.4,4.6 0,3.4 1.5,4.7 4.1,4.7 1.1,0 1.7,-0.2 2,-0.2 0,-0.6 0.1,-1 0.2,-1.5 -0.4,0.2 -0.8,0.5 -1.8,0.5 -2.6,0 -2.6,-2.4 -2.6,-3.2 H 44 l -0.1,-1"
   id="path268" />
					<path
   class="st26"
   d="m 49.3,463.3 c 0,1.6 -0.3,3.7 -2.2,3.7 -0.3,0 -0.6,0 -0.8,-0.1 0,-0.6 0,-1.6 0,-2.8 0,-1.4 0.2,-2.2 0.3,-2.6 0.4,-1.2 1.1,-1.2 1.3,-1.2 1.2,0 1.4,1.7 1.4,3 z m -4.8,1.9 c 0,1.2 0,1.9 -0.2,2.5 0.7,0.3 1.5,0.4 2.6,0.4 0.7,0 2.5,0 3.6,-2.1 0.5,-1 0.7,-2.3 0.7,-3.3 0,-0.6 -0.1,-1.9 -0.6,-2.8 -0.5,-0.8 -1.2,-1.2 -2,-1.2 -1.6,0 -2.1,1.3 -2.3,2 0,-0.9 0,-3.8 0.2,-5.4 -1.1,0.5 -1.8,0.6 -2.5,0.7 0.7,0.3 0.7,1.4 0.7,5 l -0.2,4.2"
   id="path270" />
					<path
   class="st26"
   d="m 54.3,468 c -0.3,0 -0.6,-0.1 -1.1,-0.1 -0.5,0 -0.9,0 -1.3,0.1 0.2,-0.3 0.2,-0.5 0.3,-1.6 0.1,-1.5 0.1,-5.5 0,-6.3 -0.1,-0.6 -0.2,-0.7 -0.5,-0.9 1.4,-0.1 1.8,-0.2 2.4,-0.5 -0.1,0.7 -0.2,1.1 -0.2,2.2 0.1,5.8 0.1,6.4 0.4,7.1"
   id="path272" />
					<path
   class="st26"
   d="m 59.7,463.2 c 0,1.1 0,1.8 -0.3,2.4 -0.4,0.7 -0.9,1 -1.4,1 -1,0 -1.2,-0.8 -1.2,-1.7 0,-1.6 1.4,-1.7 2,-1.7 z m -4.6,2.1 c 0,1.1 0.3,2.1 1.3,2.6 0.4,0.2 0.8,0.2 1,0.2 1.5,0 2.1,-1.1 2.4,-1.9 0,0.7 0,1.2 0,1.8 0.3,0 0.6,0 1.1,0 0.3,0 0.6,0 0.8,0 -0.2,-0.3 -0.3,-0.5 -0.3,-1.1 0,-0.6 0,-1.3 0,-2.2 v -3.4 c 0,-1.3 -0.3,-2.5 -2.8,-2.5 -1.7,0 -2.6,0.5 -3.1,0.7 0.2,0.4 0.4,0.7 0.5,1.4 0.7,-0.6 1.5,-0.9 2.4,-0.9 1.4,0 1.4,0.9 1.4,2.2 -0.3,0 -0.6,0 -1,0 -2.3,0 -3.7,0.8 -3.7,3.1"
   id="path274" />
					<path
   class="st26"
   d="m 69.4,466.3 c 0,0.6 0,1.2 0.2,1.7 -0.4,0 -0.6,-0.1 -1.3,-0.1 -0.4,0 -0.6,0 -0.9,0.1 0.1,-0.2 0.1,-0.3 0.1,-0.6 0,-0.4 0.1,-1.7 0.1,-2.1 v -1.8 c 0,-0.8 0,-1.9 0,-2.3 0,-0.3 -0.1,-1.1 -1.1,-1.1 -0.9,0 -1.3,0.7 -1.4,1.3 -0.1,0.6 -0.1,1.2 -0.1,3.7 0,2.1 0,2.3 0.2,2.9 -0.3,0 -0.6,-0.1 -1.1,-0.1 -0.4,0 -0.7,0 -1,0.1 0.1,-0.3 0.2,-0.4 0.2,-1.3 0,-0.9 0.1,-5.4 0,-6.5 -0.1,-0.7 -0.2,-0.8 -0.4,-1 1.4,-0.1 1.8,-0.3 2.2,-0.5 v 1.8 c 0.2,-0.5 0.6,-1.7 2.3,-1.7 2.1,0 2.1,1.5 2.1,2.5 l -0.1,5"
   id="path276" />
					<path
   class="st26"
   d="m 54.5,456.3 -1.4,1.4 -1.4,-1.4 1.4,-1.4 1.4,1.4"
   id="path278" />
				</g>
				<g
   id="g286">
					<path
   class="st26"
   d="m 80.3,462.5 c 0,1.8 0,2.9 0.1,3.8 0.1,1.2 0.2,1.4 0.3,1.7 -0.5,-0.1 -1,-0.1 -1.4,-0.1 -0.5,0 -0.8,0 -1.2,0.1 0.2,-0.5 0.3,-0.7 0.3,-1.7 0,-0.7 0.1,-1.6 0.1,-3.8 v -2.1 c -0.1,-2.8 -0.1,-3 -0.1,-3.6 -0.8,0.3 -1.6,0.6 -2.4,1.1 0,-0.2 0,-0.4 0.1,-0.6 0,-0.3 0,-0.6 -0.1,-0.8 0.9,-0.2 2.9,-0.8 4.4,-1.8 -0.1,1.4 -0.1,2.4 -0.1,5.2 0,0 0,2.6 0,2.6 z"
   id="path282" />
					<path
   class="st26"
   d="m 88.1,466.2 c 2.5,0 2.8,0 3.5,-0.5 -0.1,0.4 -0.1,0.8 -0.1,1.4 0,0.5 0,0.7 0.1,1 -1.2,-0.1 -2.3,-0.1 -3.5,-0.1 -1.8,0 -3.4,0 -4,0.1 0,-0.2 0.1,-0.5 0.1,-0.9 0,-0.4 0,-0.7 -0.1,-0.9 0.6,-0.5 1.1,-0.9 2.2,-2.1 2.2,-2.3 3.1,-3.8 3.1,-5.3 0,-1.4 -1,-2.3 -2.5,-2.3 -0.8,0 -1.6,0.2 -2.2,0.6 0,-0.4 0.1,-0.8 0.1,-1.1 0,-0.3 0,-0.6 0,-0.7 0.9,-0.3 1.8,-0.5 2.8,-0.5 2.6,0 3.9,1.3 3.9,3.3 0,1.6 -0.9,2.9 -1.4,3.7 -0.7,1 -2,2.5 -4,4.3 z"
   id="path284" />
				</g>
			</g>
		</g>
	</g>
</svg>
