<?xml version="1.0" encoding="UTF-8" standalone="no"?>
<!-- Generator: Adobe Illustrator 16.0.0, SVG Export Plug-In . SVG Version: 6.00 Build 0)  -->

<svg
   xmlns:dc="http://purl.org/dc/elements/1.1/"
   xmlns:cc="http://creativecommons.org/ns#"
   xmlns:rdf="http://www.w3.org/1999/02/22-rdf-syntax-ns#"
   xmlns:svg="http://www.w3.org/2000/svg"
   xmlns="http://www.w3.org/2000/svg"
   xmlns:sodipodi="http://sodipodi.sourceforge.net/DTD/sodipodi-0.dtd"
   xmlns:inkscape="http://www.inkscape.org/namespaces/inkscape"
   version="1.1"
   id="root"
   x="0px"
   y="0px"
   width="640px"
   height="480px"
   viewBox="0 0 640 480"
   enable-background="new 0 0 640 480"
   xml:space="preserve"
   inkscape:version="0.91 r13725"
   sodipodi:docname="softwaves.svg"><metadata
     id="metadata171"><rdf:RDF><cc:Work
         rdf:about=""><dc:format>image/svg+xml</dc:format><dc:type
           rdf:resource="http://purl.org/dc/dcmitype/StillImage" /><dc:title></dc:title></cc:Work></rdf:RDF></metadata><defs
     id="defs169" /><sodipodi:namedview
     pagecolor="#ffffff"
     bordercolor="#666666"
     borderopacity="1"
     objecttolerance="10"
     gridtolerance="10"
     guidetolerance="10"
     inkscape:pageopacity="0"
     inkscape:pageshadow="2"
     inkscape:window-width="1920"
     inkscape:window-height="1007"
     id="namedview167"
     showgrid="false"
     inkscape:zoom="0.49166667"
     inkscape:cx="320"
     inkscape:cy="240"
     inkscape:window-x="0"
     inkscape:window-y="0"
     inkscape:window-maximized="1"
     inkscape:current-layer="root" /><g
     id="background"><linearGradient
       id="SVGID_1_"
       gradientUnits="userSpaceOnUse"
       x1="1360.8889"
       y1="-776.281"
       x2="1360.8887"
       y2="-1264.3704"
       gradientTransform="matrix(1 0 0 -1 -1041.334 -778.272)"><stop
         offset="0"
         style="stop-color:#133356"
         id="stop5" /><stop
         offset="0.5025"
         style="stop-color:#7C9999"
         id="stop7" /><stop
         offset="1"
         style="stop-color:#333333"
         id="stop9" /></linearGradient><rect
       x="-3.805"
       y="-3.166"
       fill="url(#SVGID_1_)"
       width="646.72"
       height="489.001"
       id="rect11" /><g
       id="Layer_4"><radialGradient
         id="SVGID_2_"
         cx="1332.0618"
         cy="-808.6716"
         r="316.2826"
         gradientTransform="matrix(0.9974 0 0 -1.3488 -1038.2571 -862.5144)"
         gradientUnits="userSpaceOnUse"><stop
           offset="0"
           style="stop-color:#E4C8A5;stop-opacity:0.5"
           id="stop15" /><stop
           offset="0.1429"
           style="stop-color:#AEAB93;stop-opacity:0.4372"
           id="stop17" /><stop
           offset="0.3797"
           style="stop-color:#587E77;stop-opacity:0.3331"
           id="stop19" /><stop
           offset="0.4877"
           style="stop-color:#366C6C;stop-opacity:0.2857"
           id="stop21" /></radialGradient><rect
         x="-2.827"
         y="-3.166"
         fill="url(#SVGID_2_)"
         width="646.661"
         height="489.001"
         id="rect23" /></g></g><g
     id="waves_1_"
     opacity="0.8"
     enable-background="new    "><radialGradient
       id="SVGID_3_"
       cx="1248.1907"
       cy="-1137.9495"
       r="236.5"
       gradientTransform="matrix(1 0 0 -1 -1041.334 -778.272)"
       gradientUnits="userSpaceOnUse"><stop
         offset="0"
         style="stop-color:#FFFFFF"
         id="stop27" /><stop
         offset="1"
         style="stop-color:#FFFFFF;stop-opacity:0"
         id="stop29" /></radialGradient><path
       opacity="0.5"
       fill="url(#SVGID_3_)"
       enable-background="new    "
       d="M454.745,191.165c0,0,41.074,47.033,22.502,119.629   c-31.393,122.72-126.446,142.329-280.427,107.419c-271.319-61.521-280.698,75.865-278.687,88.624l14.729,21.354   c-2.015-12.758,7.364-150.146,278.688-88.621c153.979,34.908,249.033,15.298,280.428-107.423   C510.553,259.558,454.745,191.165,454.745,191.165"
       id="path31" /><radialGradient
       id="SVGID_4_"
       cx="1353.6213"
       cy="-1243.9592"
       r="191.1318"
       gradientTransform="matrix(1 0 0 -1 -1041.334 -778.272)"
       gradientUnits="userSpaceOnUse"><stop
         offset="0"
         style="stop-color:#FFFFFF"
         id="stop34" /><stop
         offset="1"
         style="stop-color:#FFFFFF;stop-opacity:0"
         id="stop36" /></radialGradient><path
       opacity="0.5"
       fill="url(#SVGID_4_)"
       enable-background="new    "
       d="M573.541,396.34   c-72.863,45.283-132.584,50.17-243.638,28.722C58.585,363.54,49.207,500.926,51.219,513.681l14.73,21.354   c-2.018-12.756,7.362-150.138,278.683-88.619C460.604,474.946,533.758,436.177,573.541,396.34z"
       id="path38" /><radialGradient
       id="SVGID_5_"
       cx="1549.2522"
       cy="1331.283"
       r="68.9666"
       gradientTransform="matrix(1 0 0 1 -1143.6738 -931.3105)"
       gradientUnits="userSpaceOnUse"><stop
         offset="0"
         style="stop-color:#FFFFFF"
         id="stop41" /><stop
         offset="1"
         style="stop-color:#FFFFFF;stop-opacity:0"
         id="stop43" /></radialGradient><path
       opacity="0.3"
       fill="url(#SVGID_5_)"
       enable-background="new    "
       d="M434.91,327.022c0,0,19.968,9.574,25.604,36.258   c9.529,45.104-16.604,65.394-69.354,76.223c-49.465,5.338-52.266,29.494-49.647,33.421c-2.613-3.926,13.104-21.671,57.516-28.503   c52.75-10.83,78.885-31.122,69.354-76.227C462.74,341.515,434.91,327.022,434.91,327.022"
       id="path45" /></g><g
     id="glows_1_"><radialGradient
       id="SVGID_6_"
       cx="1512.4651"
       cy="-992.2629"
       r="93.7261"
       gradientTransform="matrix(1 0 0 -1 -1041.334 -778.272)"
       gradientUnits="userSpaceOnUse"><stop
         offset="0"
         style="stop-color:#FFFCDD"
         id="stop49" /><stop
         offset="1"
         style="stop-color:#FEF9C8;stop-opacity:0"
         id="stop51" /></radialGradient><circle
       opacity="0.2"
       fill="url(#SVGID_6_)"
       enable-background="new    "
       cx="471.131"
       cy="213.991"
       r="93.726"
       id="circle53" /><radialGradient
       id="SVGID_7_"
       cx="1460.4124"
       cy="-960.0076"
       r="74.1873"
       gradientTransform="matrix(1 0 0 -1 -1041.334 -778.272)"
       gradientUnits="userSpaceOnUse"><stop
         offset="0"
         style="stop-color:#99CCCC"
         id="stop56" /><stop
         offset="1"
         style="stop-color:#FEF9C8;stop-opacity:0"
         id="stop58" /></radialGradient><circle
       opacity="0.2"
       fill="url(#SVGID_7_)"
       enable-background="new    "
       cx="419.077"
       cy="181.736"
       r="74.187"
       id="circle60" /><radialGradient
       id="SVGID_8_"
       cx="1140.1926"
       cy="-947.2507"
       r="98.3567"
       gradientTransform="matrix(1 0 0 -1 -1041.334 -778.272)"
       gradientUnits="userSpaceOnUse"><stop
         offset="0"
         style="stop-color:#FFFCDD"
         id="stop63" /><stop
         offset="1"
         style="stop-color:#FEF9C8;stop-opacity:0"
         id="stop65" /></radialGradient><circle
       opacity="0.1"
       fill="url(#SVGID_8_)"
       enable-background="new    "
       cx="98.858"
       cy="168.979"
       r="98.357"
       id="circle67" /><radialGradient
       id="SVGID_9_"
       cx="1203.3"
       cy="-1010.7117"
       r="98.3581"
       gradientTransform="matrix(1 0 0 -1 -1041.334 -778.272)"
       gradientUnits="userSpaceOnUse"><stop
         offset="0"
         style="stop-color:#FFFCDD"
         id="stop70" /><stop
         offset="1"
         style="stop-color:#FEF9C8;stop-opacity:0"
         id="stop72" /></radialGradient><circle
       opacity="0.1"
       fill="url(#SVGID_9_)"
       enable-background="new    "
       cx="161.966"
       cy="232.44"
       r="98.358"
       id="circle74" /><radialGradient
       id="SVGID_10_"
       cx="1276.4231"
       cy="-1070.072"
       r="125.8249"
       gradientTransform="matrix(1 0 0 -1 -1041.334 -778.272)"
       gradientUnits="userSpaceOnUse"><stop
         offset="0"
         style="stop-color:#FFFCDD"
         id="stop77" /><stop
         offset="1"
         style="stop-color:#FEF9C8;stop-opacity:0"
         id="stop79" /></radialGradient><circle
       opacity="0.1"
       fill="url(#SVGID_10_)"
       enable-background="new    "
       cx="235.089"
       cy="291.8"
       r="125.825"
       id="circle81" /><radialGradient
       id="SVGID_11_"
       cx="1440.9104"
       cy="-1015.7688"
       r="125.8247"
       gradientTransform="matrix(1 0 0 -1 -1041.334 -778.272)"
       gradientUnits="userSpaceOnUse"><stop
         offset="0"
         style="stop-color:#FFFCDD"
         id="stop84" /><stop
         offset="1"
         style="stop-color:#FEF9C8;stop-opacity:0"
         id="stop86" /></radialGradient><circle
       opacity="0.1"
       fill="url(#SVGID_11_)"
       enable-background="new    "
       cx="399.575"
       cy="237.497"
       r="125.825"
       id="circle88" /><radialGradient
       id="SVGID_12_"
       cx="1411.6506"
       cy="-971.4583"
       r="125.8247"
       gradientTransform="matrix(1 0 0 -1 -1041.334 -778.272)"
       gradientUnits="userSpaceOnUse"><stop
         offset="0"
         style="stop-color:#99CCCC"
         id="stop91" /><stop
         offset="1"
         style="stop-color:#FEF9C8;stop-opacity:0"
         id="stop93" /></radialGradient><circle
       opacity="0.2"
       fill="url(#SVGID_12_)"
       enable-background="new    "
       cx="370.316"
       cy="193.186"
       r="125.825"
       id="circle95" /><radialGradient
       id="SVGID_13_"
       cx="1537.4758"
       cy="-971.4583"
       r="125.8252"
       gradientTransform="matrix(1 0 0 -1 -1041.334 -778.272)"
       gradientUnits="userSpaceOnUse"><stop
         offset="0"
         style="stop-color:#FFFCDD"
         id="stop98" /><stop
         offset="1"
         style="stop-color:#FEF9C8;stop-opacity:0"
         id="stop100" /></radialGradient><circle
       opacity="0.2"
       fill="url(#SVGID_13_)"
       enable-background="new    "
       cx="496.141"
       cy="193.186"
       r="125.825"
       id="circle102" /><radialGradient
       id="SVGID_14_"
       cx="1500.6067"
       cy="-1060.0789"
       r="125.8249"
       gradientTransform="matrix(1 0 0 -1 -1041.334 -778.272)"
       gradientUnits="userSpaceOnUse"><stop
         offset="0"
         style="stop-color:#99CCCC"
         id="stop105" /><stop
         offset="1"
         style="stop-color:#FEF9C8;stop-opacity:0"
         id="stop107" /></radialGradient><circle
       opacity="0.2"
       fill="url(#SVGID_14_)"
       enable-background="new    "
       cx="459.273"
       cy="281.807"
       r="125.825"
       id="circle109" /></g><g
     id="logoGroup_2_"
     opacity="0.8"
     enable-background="new    "><g
       id="g112"><g
         id="logo_9_"
         enable-background="new    "><path
           fill="#FFFFFF"
           d="M588.705,407.417c-1.729,0.023,0.324,0.892,2.588,1.24c0.617-0.494,1.183-0.984,1.688-1.461     C591.574,407.546,590.149,407.554,588.705,407.417"
           id="path115" /><path
           fill="#FFFFFF"
           d="M597.974,405.108c1.029-1.428,1.783-2.979,2.045-4.58c-0.229,1.14-0.854,2.132-1.438,3.176     c-3.229,2.033-0.309-1.208-0.004-2.438C595.11,405.636,598.103,403.888,597.974,405.108"
           id="path117" /><path
           fill="#FFFFFF"
           d="M601.399,396.2c0.211-3.109-0.609-2.125-0.889-0.943C600.839,395.429,601.091,397.45,601.399,396.2"
           id="path119" /><path
           fill="#FFFFFF"
           d="M582.155,353.677c0.924,0.171,1.994,0.296,1.84,0.519C585.007,353.969,585.233,353.769,582.155,353.677"
           id="path121" /><path
           fill="#FFFFFF"
           d="M583.992,354.189l-0.647,0.145l0.604-0.061L583.992,354.189"
           id="path123" /><path
           fill="#FFFFFF"
           d="M612.742,397.379c0.105,2.796-0.813,4.151-1.646,6.557l-1.492,0.738     c-1.225,2.379,0.119,1.512-0.756,3.403c-1.908,1.695-5.787,5.299-7.023,5.631c-0.903-0.021,0.605-1.069,0.812-1.483     c-2.555,1.754-2.047,2.637-5.955,3.7l-0.107-0.256c-9.634,4.533-23.014-4.446-22.832-16.696     c-0.104,0.775-0.295,0.584-0.509,0.896c-0.497-6.301,2.911-12.633,8.655-15.221c5.625-2.778,12.217-1.646,16.24,2.114     c-2.213-2.896-6.615-5.973-11.832-5.688c-5.109,0.085-9.896,3.33-11.488,6.854c-2.618,1.646-2.922,6.354-4.063,7.216     c-1.533,11.28,2.895,16.153,10.372,21.896c1.179,0.791,0.33,0.906,0.486,1.521c-2.486-1.164-4.756-2.916-6.633-5.066     c0.992,1.447,2.064,2.863,3.451,3.976c-2.351-0.8-5.478-5.681-6.392-5.88c4.041,7.232,16.388,12.688,22.859,9.982     c-3,0.104-6.799,0.063-10.156-1.188c-1.419-0.729-3.334-2.223-2.992-2.508c8.83,3.293,17.943,2.492,25.584-3.629     c1.939-1.52,4.064-4.086,4.683-4.123c-0.925,1.396,0.156,0.668-0.555,1.896c1.934-3.125-0.843-1.272,2.002-5.393l1.049,1.444     c-0.396-2.604,3.228-5.745,2.854-9.846c0.829-1.257,0.926,1.353,0.045,4.229c1.22-3.201,0.327-3.712,0.636-6.354     c0.34,0.888,0.782,1.828,1.012,2.769c-0.793-3.097,0.813-5.206,1.217-7.003c-0.396-0.178-1.229,1.361-1.42-2.285     c0.025-1.586,0.444-0.83,0.602-1.221c-0.311-0.184-1.128-1.398-1.621-3.729c0.355-0.547,0.962,1.428,1.453,1.505     c-0.315-1.853-0.858-3.269-0.884-4.69c-1.435-2.993-0.507,0.404-1.666-1.283c-1.523-4.758,1.263-1.104,1.452-3.266     c2.311,3.348,3.628,8.537,4.229,10.688c-0.459-2.623-1.203-5.161-2.115-7.617c0.702,0.302-1.138-5.391,0.911-1.621     c-2.188-8.032-9.342-15.534-15.926-19.052c0.803,0.733,1.818,1.656,1.457,1.807c-3.271-1.947-2.703-2.104-3.173-2.93     c-2.666-1.082-2.843,0.093-4.604,0.012c-5.024-2.671-5.994-2.395-10.623-4.06l0.205,0.982c-3.33-1.107-3.882,0.42-7.483,0.006     c-0.214-0.176,1.161-0.623,2.284-0.783c-3.215,0.425-3.063-0.635-6.217,0.117c0.771-0.547,1.599-0.908,2.426-1.371     c-2.627,0.162-6.271,1.527-5.146,0.283c-4.282,1.908-11.895,4.591-16.155,8.599l-0.135-0.898     c-1.959,2.354-8.531,7.018-9.058,10.059l-0.524,0.121c-1.017,1.725-1.679,3.68-2.479,5.449c-1.336,2.27-1.948,0.871-1.762,1.229     c-2.621,5.313-3.923,9.771-5.045,13.433c0.805,1.192,0.014,7.204,0.315,12.015c-1.311,23.751,16.668,46.813,36.322,52.135     c2.879,1.032,7.164,0.997,10.807,1.096c-4.295-1.226-4.854-0.646-9.043-2.105c-3.021-1.424-3.682-3.043-5.813-4.905l0.842,1.497     c-4.192-1.481-2.438-1.842-5.854-2.92l0.901-1.184c-1.361-0.104-3.604-2.288-4.211-3.51l-1.491,0.063     c-1.781-2.203-2.738-3.801-2.668-5.026l-0.479,0.854c-0.548-0.933-6.575-8.271-3.444-6.563c-0.582-0.527-1.357-0.863-2.194-2.386     l0.636-0.732c-1.503-1.936-2.771-4.423-2.674-5.243c0.804,1.086,1.361,1.281,1.919,1.473c-3.812-9.438-4.021-0.521-6.904-9.607     l0.613-0.055c-0.472-0.7-0.75-1.463-1.133-2.215l0.271-2.643c-2.736-3.161-0.767-13.46-0.375-19.107     c0.271-2.297,2.282-4.742,3.817-8.576l-0.936-0.159c1.781-3.104,10.174-12.483,14.063-12.009c1.885-2.356-0.38-0.006-0.744-0.601     c4.141-4.276,5.438-3.028,8.229-3.796c3.021-1.789-2.579,0.7-1.154-0.681c5.202-1.326,3.689-3.021,10.478-3.692     c0.721,0.403-1.658,0.624-2.254,1.153c4.334-2.125,13.727-1.639,19.817,1.179c7.068,3.307,15.021,13.075,15.334,22.272     l0.357,0.099c-0.178,3.653,0.563,7.879-0.729,11.768L612.742,397.379"
           id="path125" /><path
           fill="#FFFFFF"
           d="M569.851,409.788l-0.244,1.211c1.133,1.547,2.039,3.215,3.486,4.422     C572.048,413.386,571.272,412.546,569.851,409.788"
           id="path127" /><path
           fill="#FFFFFF"
           d="M572.531,409.689c-0.604-0.67-0.957-1.476-1.354-2.271c0.379,1.404,1.16,2.607,1.889,3.83     L572.531,409.689"
           id="path129" /><path
           fill="#FFFFFF"
           d="M620.031,399.362l-0.25,0.636c-0.467,3.303-1.477,6.575-3.02,9.606     C618.468,406.409,619.562,402.908,620.031,399.362"
           id="path131" /><path
           fill="#FFFFFF"
           d="M582.496,352.851c1.166-0.43,2.867-0.231,4.109-0.517c-1.617,0.138-3.225,0.211-4.813,0.415     L582.496,352.851"
           id="path133" /><path
           fill="#FFFFFF"
           d="M541.49,374.657c0.271,2.486-1.871,3.455,0.476,1.814C543.226,373.636,541.478,375.687,541.49,374.657"
           id="path135" /><path
           fill="#FFFFFF"
           d="M538.73,386.187c0.551-1.656,0.646-2.653,0.852-3.617C538.078,384.48,538.888,384.887,538.73,386.187"
           id="path137" /></g></g></g><g
     id="rounds"><circle
       opacity="0.2"
       fill="#FFFFFF"
       enable-background="new    "
       cx="467.573"
       cy="421.214"
       r="1.702"
       id="circle159" /><circle
       opacity="0.3"
       fill="#FFFFFF"
       enable-background="new    "
       cx="476.613"
       cy="409.335"
       r="1.701"
       id="circle161" /><circle
       opacity="0.4"
       fill="#FFFFFF"
       enable-background="new    "
       cx="482.021"
       cy="394.638"
       r="1.702"
       id="circle163" /><circle
       opacity="0.5"
       fill="#FFFFFF"
       enable-background="new    "
       cx="482.019"
       cy="377.282"
       r="1.702"
       id="circle165" /></g></svg>